<?xml version="1.0" standalone="no"?>
<!DOCTYPE svg PUBLIC "-//W3C//DTD SVG 1.1//EN" "http://www.w3.org/Graphics/SVG/1.1/DTD/svg11.dtd" >
<svg xmlns="http://www.w3.org/2000/svg">
<metadata>Generated by IcoMoon</metadata>
<defs>
<font id="Symbols" horiz-adv-x="2048">
<font-face units-per-em="2048" ascent="2048" descent="0" />
<missing-glyph horiz-adv-x="2048" />
<glyph unicode="&#x20;" horiz-adv-x="0" d="" />
<glyph unicode="&#xe001;" glyph-name="Check_Deprecated" d="M1773.226 1495.886c-12.8 12.8-27.306 18.774-45.226 18.774s-32.426-5.974-45.226-18.774l-914.774-913.92-402.774 401.92c-12.8 12.8-27.306 18.774-45.226 18.774s-32.426-5.974-45.226-18.774-18.774-27.306-18.774-45.226 5.974-32.426 18.774-45.226l448-448c12.8-12.8 27.306-18.774 45.226-18.774s32.426 5.974 45.226 18.774l960 960c12.8 12.8 18.774 27.306 18.774 45.226s-5.974 32.426-18.774 45.226z" />
<glyph unicode="&#xe00a;" glyph-name="Favorite1" d="M680.96 1405.44l273.92 557.226c28.16 57.174 109.226 57.174 137.386 0l274.774-557.226 615.254-88.746c63.146-9.386 87.894-86.186 42.666-130.56l-444.586-433.494 104.96-612.694c11.094-62.294-55.466-110.080-111.786-81.066l-549.546 289.28-549.546-289.28c-56.32-29.866-122.026 17.92-110.934 81.066l105.814 611.84-446.294 433.494c-45.226 44.374-20.48 122.026 42.666 130.56l615.254 88.746z" />
<glyph unicode="&#xe052;" glyph-name="Visibility_Deprecated" d="M1339.734 1147.734c-40.96 40.96-87.894 72.534-142.506 96.426s-111.786 35.84-173.226 35.84-116.906-11.946-170.666-34.986-101.546-54.614-142.506-94.72-73.386-87.040-98.134-139.946-36.694-110.080-36.694-169.814 11.094-122.026 34.134-176.64 54.614-103.254 94.72-145.066 87.040-74.24 141.654-98.134 113.494-35.84 176.64-35.84 119.466 11.946 173.226 35.84 101.546 55.466 142.506 96.426 72.534 87.894 96.426 142.506 35.84 111.786 35.84 173.226-11.946 119.466-35.84 173.226-55.466 101.546-96.426 142.506zM1319.254 710.826c-16.214-39.254-38.4-74.24-67.414-104.106s-62.294-52.906-100.694-69.974-81.92-25.6-127.146-25.6-86.186 8.534-124.586 24.746-72.534 39.254-101.546 68.266-52.054 63.146-68.266 101.546-24.746 80.214-24.746 124.586 8.534 86.186 24.746 124.586 39.254 72.534 68.266 101.546 63.146 52.054 101.546 68.266 80.214 24.746 124.586 24.746 83.626-8.534 122.026-24.746 72.534-38.4 102.4-67.414 52.906-61.44 69.974-99.84 25.6-78.506 25.6-122.026-8.534-87.894-24.746-127.146zM2007.040 888.32c-7.68 24.746-16.214 51.2-26.454 78.506s-20.48 52.906-31.574 77.654-19.626 43.52-25.6 56.32c-44.374 83.626-97.28 160.426-161.28 229.546s-133.974 128-210.774 177.494-160.426 87.894-249.174 115.2-181.76 40.96-277.334 40.96c-82.774 0-162.134-9.386-237.226-28.16s-146.774-45.226-213.334-80.214-128.854-76.8-185.174-126.294-108.374-104.106-154.454-164.694-86.186-126.294-119.466-197.12-60.586-145.066-81.92-221.866c-1.706-6.826-1.706-11.946-1.706-16.214 0-17.92 5.974-33.28 18.774-45.226s27.306-17.92 45.226-17.92c10.24 0 20.48 2.56 29.866 8.534s17.066 12.8 23.040 21.334 11.094 17.92 15.36 28.16 5.12 20.48 5.12 30.72c0 8.534 2.56 21.334 8.534 39.254s12.8 35.84 20.48 54.614 16.214 37.546 23.894 54.614 14.506 30.72 18.774 39.254c38.4 71.68 84.48 137.386 139.094 197.12s115.2 112.64 181.76 156.16 138.24 77.654 215.040 102.4 156.16 36.694 238.934 36.694c69.974 0 137.386-7.68 203.094-23.894s128-38.4 186.88-68.266 115.2-65.706 167.254-109.226 98.986-92.16 141.654-146.774c32.426-40.106 61.44-83.626 87.894-131.414s46.934-95.574 62.294-144.214c5.12-16.214 9.386-32.426 12.8-48.64s8.534-32.426 16.214-47.786c6.826-14.506 14.506-26.454 23.040-35.84s21.334-13.654 39.254-13.654 32.426 5.974 45.226 18.774 18.774 27.306 18.774 45.226c0 12.8-3.414 31.574-11.094 56.32z" />
<glyph unicode="&#xe082;" glyph-name="SolidStar_1" d="M2046.294 1239.040c0 16.214-5.12 29.866-15.36 41.814s-23.894 19.626-39.254 22.186l-628.054 91.306-282.454 570.026c-5.12 11.094-13.654 19.626-23.894 25.6s-22.186 9.386-34.134 9.386c-11.094 0-22.186-3.414-32.426-9.386s-17.92-14.506-23.894-25.6l-281.6-570.026-628.054-91.306c-15.36-2.56-28.16-10.24-39.254-23.040s-16.214-26.454-16.214-41.814c0-17.066 5.974-32.426 18.774-45.226l454.826-442.88-106.666-626.346s-0.854-5.974-0.854-11.094c0-17.066 5.974-32.426 18.774-45.226s27.306-19.626 45.226-19.626c10.24 0 20.48 2.56 29.866 7.68l562.346 296.106 562.346-296.106c8.534-4.266 18.774-6.826 29.866-6.826 17.066 0 32.426 5.974 45.226 18.774s18.774 27.306 18.774 45.226c0 4.266 0 8.534-0.854 11.094l-106.666 626.346 454.826 442.88c12.8 11.946 18.774 27.306 18.774 46.080z" />
<glyph unicode="&#xe094;" glyph-name="Find1" d="M1535.146 1216.854c0-168.96-54.614-320-163.84-451.414l529.066-527.36c12.8-12.8 18.774-27.306 18.774-45.226s-5.974-33.28-18.774-46.080c-11.094-11.094-23.894-17.066-40.106-18.774s-29.866 1.706-42.666 11.094l-8.534 7.68-527.36 529.066c-131.414-109.226-282.454-163.84-451.414-163.84-127.146 0-244.906 31.574-353.28 94.72s-193.706 148.48-256 256.854c-63.146 108.374-94.72 226.134-94.72 354.134s31.574 244.906 94.72 353.28c63.146 107.52 148.48 193.706 256 256s225.28 94.72 353.28 94.72 245.76-31.574 354.134-94.72 193.706-148.48 256.854-256c63.146-107.52 94.72-225.28 94.72-353.28zM830.294 1791.146c-158.72 0-293.546-56.32-406.186-168.96s-168.96-248.32-168.96-406.186 56.32-295.254 168.96-407.894 248.32-168.96 406.186-168.96 293.546 56.32 407.040 169.814 169.814 248.32 169.814 407.040-56.32 293.546-168.96 406.186-248.32 168.96-407.894 168.96z" />
<glyph unicode="&#xe0a6;" glyph-name="Back1" d="M917.334 188.586l-884.906 847.36c-17.92 16.214-29.014 37.546-31.574 63.146 0 0.854 0 2.56 0 5.12-0.854 1.706-0.854 4.266-0.854 5.12s0 2.56 0 5.12c0 2.56 0 5.12 0 6.826 2.56 24.746 12.8 45.226 31.574 63.146l885.76 846.506c13.654 11.946 29.014 17.92 46.080 17.066s32.426-8.534 43.52-22.186 17.066-29.866 17.066-48.64-6.826-33.28-20.48-46.080l-788.48-754.346h1769.814c17.92 0 32.426-6.826 45.226-20.48s18.774-29.866 18.774-47.786-5.974-34.134-18.774-46.934-27.306-19.626-45.226-19.626h-1771.52l790.186-754.346c13.654-11.946 20.48-27.306 20.48-46.080s-5.12-34.986-17.066-49.494-26.454-21.334-43.52-21.334-33.28 5.12-46.080 17.92z" />
<glyph unicode="&#xe0ab;" glyph-name="Forward1" d="M1131.52 2031.786l884.906-808.96c17.92-16.214 29.014-35.84 31.574-61.44v-10.24s0-2.56 0-5.12c0-2.56 0-4.266 0-5.12-2.56-23.894-12.8-44.374-29.866-59.734l-884.906-808.96c-13.654-11.946-29.014-17.066-46.934-17.066s-32.426 6.826-44.374 20.48-17.066 29.014-16.214 46.934 7.68 32.426 21.334 44.374l789.334 720.214h-1772.374c-17.92 0-32.426 5.974-45.226 18.774s-18.774 27.306-18.774 45.226 5.974 32.426 18.774 45.226 27.306 18.774 45.226 18.774h1769.814l-788.48 721.92c-13.654 11.946-20.48 26.454-21.334 43.52s4.266 33.28 16.214 46.080 26.454 20.48 44.374 21.334c17.92 0 33.28-4.266 46.934-16.214z" />
<glyph unicode="&#xe0e2;" glyph-name="ChevronLeft_Deprecated" d="M731.306 1024l657.92 658.774c12.8 12.8 18.774 27.306 18.774 45.226s-5.974 32.426-18.774 45.226-27.306 18.774-45.226 18.774-32.426-5.974-45.226-18.774l-704-704c-12.8-12.8-18.774-27.306-18.774-45.226s5.974-32.426 18.774-45.226l704-704c12.8-12.8 27.306-18.774 45.226-18.774s32.426 5.974 45.226 18.774 18.774 27.306 18.774 45.226-5.974 32.426-18.774 45.226l-657.92 658.774z" />
<glyph unicode="&#xe0e3;" glyph-name="ChevronRight_Deprecated" d="M1453.226 1069.226l-704 704c-12.8 12.8-27.306 18.774-45.226 18.774s-32.426-5.974-45.226-18.774-18.774-27.306-18.774-45.226 5.974-32.426 18.774-45.226l657.92-658.774-657.92-658.774c-12.8-12.8-18.774-27.306-18.774-45.226s5.974-32.426 18.774-45.226 27.306-18.774 45.226-18.774 32.426 5.974 45.226 18.774l704 704c12.8 12.8 18.774 27.306 18.774 45.226s-5.974 32.426-18.774 45.226z" />
<glyph unicode="&#xe0e4;" glyph-name="ChevronUp_Deprecated" d="M1773.226 749.226l-704 704c-12.8 12.8-27.306 18.774-45.226 18.774s-32.426-5.974-45.226-18.774l-704-704c-12.8-12.8-18.774-27.306-18.774-45.226s5.974-32.426 18.774-45.226 27.306-18.774 45.226-18.774 32.426 5.974 45.226 18.774l658.774 657.92 658.774-657.92c12.8-12.8 27.306-18.774 45.226-18.774s32.426 5.974 45.226 18.774 18.774 27.306 18.774 45.226-5.974 32.426-18.774 45.226z" />
<glyph unicode="&#xe0e5;" glyph-name="ChevronDown_Deprecated" d="M1773.226 1389.226c-12.8 12.8-27.306 18.774-45.226 18.774s-32.426-5.974-45.226-18.774l-658.774-657.92-658.774 657.92c-12.8 12.8-27.306 18.774-45.226 18.774s-32.426-5.974-45.226-18.774-18.774-27.306-18.774-45.226 5.974-32.426 18.774-45.226l704-704c12.8-12.8 27.306-18.774 45.226-18.774s32.426 5.974 45.226 18.774l704 704c12.8 12.8 18.774 27.306 18.774 45.226s-5.974 32.426-18.774 45.226z" />
<glyph unicode="&#xe100;" glyph-name="Previous" d="M192.854 1920.854c-17.066 0-32.426-5.974-45.226-18.774s-18.774-27.306-18.774-44.374v-1655.466c0-17.066 5.974-32.426 18.774-44.374 12.8-12.8 27.306-18.774 45.226-18.774s32.426 5.974 45.226 18.774c12.8 12.8 18.774 27.306 18.774 44.374v1654.614c0 17.066-5.974 32.426-18.774 44.374s-27.306 18.774-45.226 18.774zM1908.054 1803.946c-8.534 19.626-20.48 35.84-34.986 50.346s-31.574 26.454-51.2 34.986c-19.626 8.534-39.254 12.8-60.586 12.8-31.574 0-60.586-8.534-87.894-26.454l-1089.706-712.534c-23.040-15.36-40.106-34.134-52.906-58.026-12.8-23.040-18.774-48.64-18.774-75.946s5.974-52.906 18.774-75.946c12.8-23.894 30.72-42.666 52.906-57.174l1088.854-713.386c26.454-17.92 56.32-26.454 87.894-26.454 22.186 0 42.666 4.266 62.294 12.8s35.84 19.626 50.346 34.134c14.506 14.506 25.6 30.72 34.134 50.346s12.8 40.106 12.8 61.44v1428.48c0 21.334-4.266 41.814-12.8 60.586zM1792.854 314.88c0-7.68-3.414-15.36-9.386-22.186s-12.8-10.24-21.334-10.24c-6.826 0-13.654 1.706-19.626 5.974l-1088.854 714.24c-4.266 3.414-8.534 7.68-10.24 11.946-2.56 4.266-3.414 9.386-3.414 14.506 0 11.946 4.266 21.334 13.654 27.306l1089.706 713.386c5.974 4.266 11.946 5.974 17.92 5.974 8.534 0 16.214-3.414 22.186-9.386s9.386-13.654 9.386-22.186v-1429.334z" />
<glyph unicode="&#xe101;" glyph-name="Next" d="M127.146 1760.426c0 40.96 13.654 75.946 40.96 105.814s59.734 46.934 96.426 52.054 74.24-4.266 111.786-25.6l1087.146-730.454c46.934-31.574 69.974-75.946 70.826-132.266s-23.040-100.694-69.12-132.266l-1088.854-739.84c-52.906-35.84-108.374-38.4-164.694-8.534s-85.334 76.8-85.334 140.8v1470.294zM304.64 1786.88c-11.094 6.826-21.334 6.826-32.426 0.854s-16.214-15.36-16.214-27.306v-1470.294c0-13.654 5.974-23.040 17.066-29.014s22.186-5.12 33.28 2.56l1087.146 740.694c9.386 5.974 13.654 14.506 13.654 26.454s-4.266 20.48-13.654 26.454l-1088.854 729.6zM1919.146 1856.854v-1663.146c0-17.066-5.974-32.426-18.774-45.226s-27.306-18.774-45.226-18.774-32.426 5.974-46.080 18.774-19.626 27.306-19.626 45.226v1663.146c0 17.066 6.826 32.426 19.626 45.226s28.16 18.774 46.080 18.774 32.426-5.974 45.226-18.774 18.774-27.306 18.774-45.226z" />
<glyph unicode="&#xe102;" glyph-name="Play1" d="M1887.574 1122.986c-17.066 29.866-40.96 53.76-71.68 70.826l-1274.026 709.974c-13.654 7.68-29.014 13.654-45.226 17.92s-32.426 5.974-47.786 5.974c-26.454 0-52.054-5.12-75.094-15.36s-43.52-23.894-60.586-40.96-30.72-37.546-40.96-60.586-15.36-48.64-15.36-75.094v-1419.946c0-26.454 5.12-52.054 15.36-75.094s23.894-43.52 41.814-60.586 38.4-30.72 61.44-40.96 48.64-15.36 75.094-15.36c16.214 0 32.426 1.706 47.786 5.974s30.72 10.24 45.226 17.92l1273.174 709.974c31.574 17.066 55.466 40.96 72.534 70.826s25.6 62.294 25.6 97.28-8.534 67.414-25.6 97.28zM1776.64 993.28c-5.974-10.24-13.654-17.92-23.894-23.894l-1273.174-709.974c-9.386-5.12-19.626-7.68-30.72-7.68-17.066 0-32.426 5.974-45.226 18.774s-18.774 27.306-18.774 45.226v1419.946c0 17.066 5.974 32.426 18.774 45.226s27.306 18.774 45.226 18.774c11.094 0 21.334-2.56 30.72-7.68l1273.174-709.974c10.24-5.12 17.92-12.8 23.894-23.894s9.386-21.334 9.386-32.426-3.414-22.186-9.386-32.426z" />
<glyph unicode="&#xe103;" glyph-name="Pause1" d="M320 128c-25.6 0-50.346 5.12-74.24 15.36s-43.52 23.894-61.44 41.814-31.574 38.4-41.814 61.44-15.36 47.786-15.36 74.24v1407.146c0 25.6 5.12 50.346 15.36 74.24s23.894 43.52 41.814 61.44 38.4 31.574 61.44 41.814 47.786 15.36 74.24 15.36h256c25.6 0 50.346-5.12 74.24-15.36s43.52-23.894 61.44-41.814 31.574-38.4 41.814-61.44 15.36-47.786 15.36-74.24v-1408c0-25.6-5.12-50.346-15.36-74.24s-23.894-43.52-41.814-61.44-38.4-31.574-61.44-41.814-47.786-15.36-74.24-15.36h-256zM576 256c17.066 0 32.426 5.974 45.226 18.774s18.774 27.306 18.774 45.226v1408c0 17.066-5.974 32.426-18.774 45.226s-27.306 18.774-45.226 18.774h-256c-17.066 0-32.426-5.974-45.226-18.774s-18.774-27.306-18.774-45.226v-1408c0-17.066 5.974-32.426 18.774-45.226s27.306-18.774 45.226-18.774h256zM1472 128c-25.6 0-50.346 5.12-74.24 15.36s-43.52 23.894-61.44 41.814-31.574 38.4-41.814 61.44-15.36 47.786-15.36 74.24v1407.146c0 25.6 5.12 50.346 15.36 74.24s23.894 43.52 41.814 61.44 38.4 31.574 61.44 41.814 47.786 15.36 74.24 15.36h256c25.6 0 50.346-5.12 74.24-15.36s43.52-23.894 61.44-41.814 31.574-38.4 41.814-61.44 15.36-47.786 15.36-74.24v-1408c0-25.6-5.12-50.346-15.36-74.24s-23.894-43.52-41.814-61.44-38.4-31.574-61.44-41.814-47.786-15.36-74.24-15.36h-256zM1728 256c17.066 0 32.426 5.974 45.226 18.774s18.774 27.306 18.774 45.226v1408c0 17.066-5.974 32.426-18.774 45.226s-27.306 18.774-45.226 18.774h-256c-17.066 0-32.426-5.974-45.226-18.774s-18.774-27.306-18.774-45.226v-1408c0-17.066 5.974-32.426 18.774-45.226s27.306-18.774 45.226-18.774h256z" />
<glyph unicode="&#xe104;" glyph-name="Edit" d="M1942.186 1929.386c71.68-75.094 106.666-163.84 105.814-267.094s-38.4-191.146-111.786-264.534l-1197.226-1197.226c-44.374-44.374-97.28-73.386-158.72-87.894l-502.614-110.934c-22.186-5.12-41.814 0-58.88 17.92s-22.186 35.84-17.92 58.88l112.64 506.026c12.8 58.026 40.106 109.226 83.626 152.746l1200.64 1199.786c75.946 75.094 167.254 112.64 273.066 110.934s197.12-40.96 271.36-118.614zM1310.72 1669.12l-1021.44-1022.294c-25.6-25.6-42.666-56.32-50.346-91.306l-89.6-407.894 403.626 89.6c35.84 7.68 67.414 24.746 94.72 52.906l1020.586 1021.44-357.546 357.546zM1488.214 1845.76l-86.186-85.334 357.546-357.546 86.186 85.334c48.64 48.64 72.534 106.666 73.386 176.64s-22.186 128-69.974 177.494c-48.64 51.2-108.374 76.8-179.2 77.654-70.826 0-131.414-23.894-181.76-73.386z" />
<glyph unicode="&#xe105;" glyph-name="Save" d="M1901.226 1489.92c-12.8 31.574-31.574 58.88-55.466 82.774l-272.214 272.214c-23.894 23.894-52.054 42.666-82.774 55.466s-64 19.626-98.134 19.626h-1012.906c-34.986 0-67.414-6.826-97.28-21.334s-57.174-32.426-79.36-56.32-40.96-50.346-53.76-81.92-19.626-63.146-19.626-97.28v-1285.12c0-34.986 6.826-67.414 21.334-97.28s32.426-57.174 56.32-79.36 50.346-40.96 81.92-53.76 63.146-19.626 97.28-19.626h1285.12c34.986 0 67.414 6.826 97.28 21.334s57.174 32.426 79.36 56.32 40.96 50.346 53.76 81.92 19.626 63.146 19.626 97.28v1006.934c0 34.134-6.826 66.56-19.626 98.134zM640.854 1792h640v-320c0-17.066-5.974-32.426-18.774-45.226s-27.306-18.774-45.226-18.774h-512c-17.066 0-32.426 5.974-45.226 18.774s-18.774 27.306-18.774 45.226v320zM1536.854 256h-1024v576c0 17.066 5.974 32.426 18.774 45.226s27.306 18.774 45.226 18.774h896c17.066 0 32.426-5.974 45.226-18.774s18.774-27.306 18.774-45.226v-576zM1792.854 384c0-17.92-3.414-34.986-10.24-50.346s-16.214-29.014-27.306-40.106-24.746-20.48-40.106-27.306-32.426-10.24-50.346-10.24v576c0 25.6-5.12 50.346-15.36 74.24s-23.894 43.52-41.814 61.44-38.4 31.574-61.44 41.814-47.786 15.36-74.24 15.36h-895.146c-25.6 0-50.346-5.12-74.24-15.36s-43.52-23.894-61.44-41.814-31.574-38.4-41.814-61.44-15.36-47.786-15.36-74.24v-576c-17.92 0-34.986 3.414-50.346 10.24s-29.014 15.36-40.106 27.306-20.48 24.746-27.306 40.106-10.24 32.426-10.24 50.346v1280c0 17.92 3.414 34.986 10.24 50.346s16.214 29.014 27.306 40.106 24.746 20.48 40.106 27.306 32.426 10.24 50.346 10.24h128v-320c0-25.6 5.12-50.346 15.36-74.24s23.894-43.52 41.814-61.44 38.4-31.574 61.44-41.814 47.786-15.36 74.24-15.36h512c25.6 0 50.346 5.12 74.24 15.36s43.52 23.894 61.44 41.814 31.574 38.4 41.814 61.44 15.36 47.786 15.36 74.24v319.146c29.014-3.414 54.614-15.36 75.094-35.84l272.214-272.214c24.746-24.746 36.694-54.614 36.694-91.306v-1007.786z" />
<glyph unicode="&#xe106;" glyph-name="Clear" d="M232.96 1799.68l6.826 8.534c10.24 10.24 22.186 16.214 36.694 17.92s27.306-1.706 39.254-10.24l8.534-6.826 615.254-615.254 615.254 615.254c10.24 10.24 22.186 16.214 36.694 17.92s27.306-1.706 39.254-10.24l8.534-6.826c10.24-10.24 16.214-22.186 17.92-36.694s-1.706-27.306-10.24-39.254l-6.826-8.534-615.254-615.254 615.254-615.254c10.24-10.24 16.214-22.186 17.92-36.694s-1.706-27.306-10.24-39.254l-6.826-8.534c-10.24-10.24-22.186-16.214-36.694-17.92s-27.306 1.706-39.254 10.24l-8.534 6.826-615.254 615.254-615.254-615.254c-10.24-10.24-22.186-16.214-36.694-17.92s-27.306 1.706-39.254 10.24l-8.534 6.826c-10.24 10.24-16.214 22.186-17.92 36.694s1.706 27.306 10.24 39.254l6.826 8.534 615.254 615.254-616.106 616.106c-10.24 10.24-16.214 22.186-17.92 36.694s1.706 27.306 10.24 39.254v0z" />
<glyph unicode="&#xe107;" glyph-name="Delete" d="M1212.586 1737.386c0 52.054-17.92 95.574-55.466 132.266-36.694 36.694-81.066 54.614-133.12 54.614s-96.426-17.92-133.12-54.614c-36.694-36.694-55.466-80.214-55.466-132.266h-124.586c0 85.334 30.72 158.72 91.306 219.306 61.44 61.44 135.68 91.306 221.866 91.306s160.426-29.866 221.014-91.306c61.44-60.586 91.306-133.974 91.306-219.306h563.2c17.066 0 31.574-5.974 44.374-17.92 11.946-11.946 18.774-26.454 18.774-43.52s-5.974-31.574-18.774-43.52c-11.946-11.946-26.454-17.92-44.374-17.92h-69.974l-162.134-1394.346c-7.68-62.294-34.986-114.346-81.92-156.16s-102.4-63.146-166.4-63.146h-791.040c-63.146 0-118.614 21.334-166.4 63.146-46.934 41.814-74.24 93.866-81.92 156.16l-162.134 1393.494h-69.974c-15.36 0-29.014 5.12-40.106 14.506s-17.92 22.186-20.48 36.694v11.094c-0.854 17.066 5.12 31.574 17.066 43.52s26.454 17.92 44.374 17.92h1064.106zM1704.96 1613.654h-1361.92l160.426-1379.84c3.414-31.574 17.066-58.026 40.96-78.506 23.894-21.334 52.054-31.574 83.626-31.574h791.894c31.574 0 59.734 10.24 83.626 31.574s37.546 46.934 40.96 78.506l160.426 1379.84zM836.266 1303.040c15.36 0 29.014-4.266 40.96-12.8s18.774-19.626 21.334-32.426v-769.706c0.854-15.36-5.12-28.16-17.92-38.4s-27.306-15.36-44.374-15.36c-15.36 0-29.014 4.266-40.106 12.8s-17.92 19.626-20.48 32.426v769.706c-0.854 15.36 5.12 28.16 17.066 38.4s27.306 15.36 44.374 15.36zM1212.586 1303.040c15.36 0 29.014-4.266 40.106-12.8s17.92-19.626 20.48-32.426v-769.706c0.854-15.36-5.12-28.16-17.066-38.4s-27.306-15.36-44.374-15.36c-15.36 0-29.014 4.266-40.96 12.8s-18.774 19.626-21.334 32.426v769.706c-0.854 15.36 5.12 28.16 17.92 38.4s27.306 15.36 44.374 15.36z" />
<glyph unicode="&#xe108;" glyph-name="Remove" d="M1774.080 1133.226c-12.8 12.8-27.306 18.774-45.226 18.774h-1536c-17.066 0-32.426-5.974-45.226-18.774s-18.774-27.306-18.774-45.226 5.974-32.426 18.774-45.226 27.306-18.774 45.226-18.774h1536c17.066 0 32.426 5.974 45.226 18.774s18.774 27.306 18.774 45.226-5.974 32.426-18.774 45.226z" />
<glyph unicode="&#xe109;" glyph-name="Add1" d="M1086.294 1900.374v-814.080h814.080c17.066 0 31.574-5.974 44.374-17.92s17.92-27.306 17.92-44.374-5.974-31.574-17.92-44.374-27.306-17.92-44.374-17.92h-814.080v-814.080c0-17.066-5.974-31.574-17.92-44.374s-27.306-17.92-44.374-17.92-31.574 5.974-44.374 17.92-17.92 27.306-17.92 44.374v814.080h-814.080c-17.066 0-31.574 5.974-44.374 17.92s-17.92 27.306-17.92 44.374 5.974 31.574 17.92 44.374 27.306 17.92 44.374 17.92h814.080v814.080c0 17.066 5.974 31.574 17.92 44.374s27.306 17.92 44.374 17.92 31.574-5.974 44.374-17.92 17.92-27.306 17.92-44.374z" />
<glyph unicode="&#xe10a;" glyph-name="Cancel" d="M232.96 1799.68l6.826 8.534c10.24 10.24 22.186 16.214 36.694 17.92s27.306-1.706 39.254-10.24l8.534-6.826 615.254-615.254 615.254 615.254c10.24 10.24 22.186 16.214 36.694 17.92s27.306-1.706 39.254-10.24l8.534-6.826c10.24-10.24 16.214-22.186 17.92-36.694s-1.706-27.306-10.24-39.254l-6.826-8.534-615.254-615.254 615.254-615.254c10.24-10.24 16.214-22.186 17.92-36.694s-1.706-27.306-10.24-39.254l-6.826-8.534c-10.24-10.24-22.186-16.214-36.694-17.92s-27.306 1.706-39.254 10.24l-8.534 6.826-615.254 615.254-615.254-615.254c-10.24-10.24-22.186-16.214-36.694-17.92s-27.306 1.706-39.254 10.24l-8.534 6.826c-10.24 10.24-16.214 22.186-17.92 36.694s1.706 27.306 10.24 39.254l6.826 8.534 615.254 615.254-616.106 616.106c-10.24 10.24-16.214 22.186-17.92 36.694s1.706 27.306 10.24 39.254v0z" />
<glyph unicode="&#xe10b;" glyph-name="Accept1" d="M116.054 1061.546l482.986-541.866 1338.026 1337.174c12.8 12.8 28.16 19.626 46.080 19.626s33.28-6.826 46.080-19.626 19.626-28.16 19.626-46.080-6.826-33.28-19.626-46.080l-1386.666-1388.374c-13.654-13.654-29.866-20.48-48.64-19.626s-34.134 7.68-46.934 22.186l-529.066 595.626c-11.946 13.654-17.92 29.866-17.066 47.786s8.534 33.28 22.186 45.226 29.866 17.92 47.786 17.066 33.28-8.534 45.226-22.186z" />
<glyph unicode="&#xe10c;" glyph-name="More" d="M225.28 1018.026c0 22.186 4.266 42.666 12.8 62.294s20.48 35.84 34.134 50.346 31.574 25.6 50.346 34.134 40.106 12.8 62.294 12.8 42.666-4.266 62.294-12.8 35.84-20.48 50.346-34.134 25.6-31.574 34.134-50.346 12.8-40.106 12.8-62.294-4.266-42.666-12.8-62.294-20.48-35.84-34.134-50.346-31.574-25.6-50.346-34.134-40.106-12.8-62.294-12.8-42.666 4.266-62.294 12.8-35.84 20.48-50.346 34.134-25.6 31.574-34.134 50.346-12.8 40.106-12.8 62.294zM865.28 1018.026c0 22.186 4.266 42.666 12.8 62.294s20.48 35.84 34.134 50.346 31.574 25.6 50.346 34.134 40.106 12.8 62.294 12.8 42.666-4.266 62.294-12.8 35.84-20.48 50.346-34.134 25.6-31.574 34.134-50.346 12.8-40.106 12.8-62.294-4.266-42.666-12.8-62.294-20.48-35.84-34.134-50.346-31.574-25.6-50.346-34.134-40.106-12.8-62.294-12.8-42.666 4.266-62.294 12.8-35.84 20.48-50.346 34.134-25.6 31.574-34.134 50.346-12.8 40.106-12.8 62.294zM1505.28 1018.026c0 22.186 4.266 42.666 12.8 62.294s20.48 35.84 34.134 50.346 31.574 25.6 50.346 34.134 40.106 12.8 62.294 12.8 42.666-4.266 62.294-12.8 35.84-20.48 50.346-34.134 25.6-31.574 34.134-50.346 12.8-40.106 12.8-62.294-4.266-42.666-12.8-62.294-20.48-35.84-34.134-50.346-31.574-25.6-50.346-34.134-40.106-12.8-62.294-12.8-42.666 4.266-62.294 12.8-35.84 20.48-50.346 34.134-25.6 31.574-34.134 50.346-12.8 40.106-12.8 62.294z" />
<glyph unicode="&#xe10d;" glyph-name="Redo1" d="M1774.080 2029.226c-12.8 12.8-28.16 18.774-45.226 18.774s-32.426-5.974-45.226-18.774-18.774-27.306-18.774-45.226v-488.96l-487.254 405.334c-57.174 47.786-121.174 84.48-191.146 110.080s-142.506 37.546-217.6 37.546c-88.746 0-171.52-17.066-249.174-50.346s-145.92-79.36-203.094-137.386-103.254-125.44-137.386-203.094-50.346-160.426-50.346-249.174c0-97.28 19.626-187.734 59.734-272.214s96.426-157.014 171.52-220.16l1071.786-901.12c11.946-10.24 25.6-15.36 40.96-15.36 17.066 0 32.426 5.974 45.226 18.774s18.774 27.306 18.774 45.226c0 19.626-7.68 35.84-23.040 48.64l-1071.786 901.974c-62.294 52.054-108.374 112.64-139.094 180.906s-46.080 143.36-46.080 222.72c0 44.374 5.974 87.894 18.774 129.706s29.866 81.92 52.054 118.614 48.64 71.68 80.214 102.4 64.854 58.026 102.4 80.214 76.8 39.254 118.614 52.054 85.334 18.774 129.706 18.774c62.294 0 122.026-9.386 179.2-29.014s110.080-48.64 158.72-88.746l471.894-394.24h-479.574c-17.066 0-32.426-5.974-45.226-18.774s-18.774-27.306-18.774-45.226 5.974-32.426 18.774-45.226 27.306-18.774 45.226-18.774h640c17.066 0 32.426 5.974 45.226 18.774s18.774 27.306 18.774 45.226v640.854c0 17.066-5.974 32.426-18.774 45.226z" />
<glyph unicode="&#xe10e;" glyph-name="Undo1" d="M1871.36 1657.174c-33.28 77.654-79.36 145.92-137.386 203.094s-125.44 103.254-203.094 137.386-161.28 50.346-250.026 50.346c-74.24 0-146.774-12.8-217.6-38.4s-133.974-62.294-191.146-110.080l-487.254-404.48v488.96c0 17.066-5.974 32.426-18.774 45.226s-28.16 18.774-45.226 18.774-32.426-5.974-45.226-18.774-18.774-27.306-18.774-45.226v-640c0-17.066 5.974-32.426 18.774-45.226s27.306-18.774 45.226-18.774h640c17.066 0 32.426 5.974 45.226 18.774s18.774 27.306 18.774 45.226-5.974 32.426-18.774 45.226-27.306 18.774-45.226 18.774h-479.574l472.746 394.24c47.786 40.106 100.694 69.974 157.866 88.746s116.906 29.014 179.2 29.014c44.374 0 87.894-5.974 129.706-18.774s81.92-29.866 118.614-52.054 71.68-48.64 102.4-80.214 58.026-64.854 80.214-102.4 39.254-76.8 52.054-118.614 18.774-85.334 18.774-129.706c0-80.214-15.36-154.454-46.080-222.72s-76.8-128.854-139.094-180.906l-1071.786-901.974c-7.68-5.974-12.8-13.654-17.066-22.186s-5.974-17.92-5.974-27.306c0-17.066 5.974-32.426 18.774-45.226s27.306-18.774 45.226-18.774c15.36 0 29.014 5.12 40.96 15.36l1071.786 901.12c73.386 62.294 130.56 135.68 170.666 220.16s60.586 175.786 60.586 271.36c0 88.746-17.066 171.52-50.346 249.174z" />
<glyph unicode="&#xe10f;" glyph-name="Home" d="M895.144 1934.932c35.84 32.426 78.506 48.64 128.854 48.64s93.014-16.214 128.854-48.64l704-632.32c42.666-38.4 64-86.186 64-142.506v-902.826c0-52.906-18.774-98.986-56.32-136.534s-82.774-56.32-136.534-56.32h-320c-52.906 0-98.986 18.774-135.68 56.32-37.546 37.546-55.466 82.774-55.466 136.534v447.146c0 17.92-6.826 32.426-19.626 45.226s-28.16 18.774-46.080 18.774h-255.146c-17.92 0-32.426-5.974-46.080-18.774s-19.626-27.306-19.626-45.226v-447.146c0-52.906-18.774-98.986-55.466-136.534s-81.92-56.32-135.68-56.32h-319.146c-52.906 0-98.986 18.774-136.534 56.32s-56.32 82.774-56.32 136.534v902.826c0 56.32 21.334 104.106 64 142.506l704 632.32zM1066.664 1840.212c-11.946 11.094-25.6 16.214-42.666 16.214s-30.72-5.12-42.666-16.214l-704-633.174c-14.506-12.8-21.334-28.16-21.334-47.786v-902.826c0-17.92 5.974-32.426 18.774-45.226s27.306-18.774 45.226-18.774h320c17.92 0 32.426 5.974 45.226 18.774s18.774 27.306 18.774 45.226v447.146c0 52.906 18.774 98.986 56.32 136.534s82.774 56.32 136.534 56.32h255.146c52.906 0 98.986-18.774 136.534-56.32s56.32-82.774 56.32-136.534v-447.146c0-17.92 5.974-32.426 18.774-45.226s27.306-18.774 45.226-18.774h320c17.92 0 32.426 5.974 45.226 18.774s18.774 27.306 18.774 45.226v903.68c0 18.774-6.826 34.986-21.334 47.786l-704.854 632.32z" />
<glyph unicode="&#xe110;" glyph-name="Up" d="M2028.374 1133.226l-952.32 892.586c-7.68 7.68-15.36 12.8-23.040 16.214s-17.066 5.974-28.16 5.974-20.48-1.706-28.16-5.12c-7.68-3.414-15.36-9.386-23.040-16.214l-952.32-893.44c-13.654-12.8-20.48-27.306-20.48-45.226s6.826-32.426 20.48-45.226 29.866-18.774 47.786-18.774 34.134 5.974 47.786 18.774l839.68 785.92v-1764.694c0-17.066 6.826-32.426 20.48-45.226s29.866-18.774 47.786-18.774 34.134 5.974 47.786 18.774 20.48 27.306 20.48 45.226v1764.694l839.68-785.92c13.654-12.8 29.866-18.774 47.786-18.774s34.134 5.974 47.786 18.774 20.48 27.306 20.48 45.226-6.826 32.426-20.48 45.226z" />
<glyph unicode="&#xe111;" glyph-name="Forward" d="M1131.52 2031.786l884.906-808.96c17.92-16.214 29.014-35.84 31.574-61.44v-10.24s0-2.56 0-5.12c0-2.56 0-4.266 0-5.12-2.56-23.894-12.8-44.374-29.866-59.734l-884.906-808.96c-13.654-11.946-29.014-17.066-46.934-17.066s-32.426 6.826-44.374 20.48-17.066 29.014-16.214 46.934 7.68 32.426 21.334 44.374l789.334 720.214h-1772.374c-17.92 0-32.426 5.974-45.226 18.774s-18.774 27.306-18.774 45.226 5.974 32.426 18.774 45.226 27.306 18.774 45.226 18.774h1769.814l-788.48 721.92c-13.654 11.946-20.48 26.454-21.334 43.52s4.266 33.28 16.214 46.080 26.454 20.48 44.374 21.334c17.92 0 33.28-4.266 46.934-16.214z" />
<glyph unicode="&#xe112;" glyph-name="Back" d="M917.334 188.586l-884.906 847.36c-17.92 16.214-29.014 37.546-31.574 63.146 0 0.854 0 2.56 0 5.12-0.854 1.706-0.854 4.266-0.854 5.12s0 2.56 0 5.12c0 2.56 0 5.12 0 6.826 2.56 24.746 12.8 45.226 31.574 63.146l885.76 846.506c13.654 11.946 29.014 17.92 46.080 17.066s32.426-8.534 43.52-22.186 17.066-29.866 17.066-48.64-6.826-33.28-20.48-46.080l-788.48-754.346h1769.814c17.92 0 32.426-6.826 45.226-20.48s18.774-29.866 18.774-47.786-5.974-34.134-18.774-46.934-27.306-19.626-45.226-19.626h-1771.52l790.186-754.346c13.654-11.946 20.48-27.306 20.48-46.080s-5.12-34.986-17.066-49.494-26.454-21.334-43.52-21.334-33.28 5.12-46.080 17.92z" />
<glyph unicode="&#xe113;" glyph-name="Favorite" d="M680.96 1406.294l273.92 559.786c28.16 57.174 109.226 57.174 137.386 0l274.774-559.786 615.254-89.6c63.146-9.386 87.894-87.040 42.666-131.414l-444.586-435.2 104.96-614.4c11.094-63.146-55.466-110.934-111.786-81.066l-549.546 290.986-549.546-290.986c-56.32-29.866-122.026 17.92-110.934 81.066l105.814 614.4-446.294 436.054c-45.226 44.374-20.48 122.026 42.666 131.414l615.254 89.6z" />
<glyph unicode="&#xe114;" glyph-name="Camera" d="M784.214 2048h481.28c36.694 0 70.826-9.386 101.546-29.014 31.574-18.774 54.614-45.226 70.826-77.654l75.094-150.186h215.894c88.746 0 163.84-31.574 226.134-93.866s93.866-138.24 93.866-226.134v-1024c0-88.746-31.574-163.84-93.866-226.134s-138.24-93.866-226.134-93.866h-1408.854c-88.746 0-163.84 31.574-226.134 93.866s-93.866 138.24-93.866 226.986v1023.146c0 88.746 31.574 163.84 93.866 226.986s138.24 93.866 226.134 93.866h215.894l75.946 151.040c16.214 32.426 39.254 58.026 69.974 76.8s65.706 28.16 102.4 28.16zM727.040 1885.866l-92.16-186.026c-12.8-23.040-31.574-34.986-57.174-34.986h-257.706c-52.906 0-98.986-18.774-135.68-56.32-37.546-37.546-55.466-82.774-55.466-136.534v-1024c0-52.906 18.774-98.134 55.466-135.68 36.694-36.694 81.92-55.466 135.68-55.466h1408.854c52.906 0 98.134 18.774 135.68 55.466 36.694 36.694 55.466 81.92 55.466 135.68v1023.146c0 52.906-18.774 98.986-55.466 136.534-37.546 37.546-81.92 56.32-135.68 56.32h-256c-25.6 0-45.226 11.946-57.174 34.986l-92.16 185.174c-12.8 23.894-31.574 35.84-57.174 35.84h-481.28c-25.6 0-45.226-11.946-57.174-34.986zM768 1468.586c78.506 46.080 163.84 69.12 256 69.12s178.346-23.040 256.854-69.12c78.506-46.080 140.8-108.374 186.88-186.88s69.12-164.694 69.12-256.854-23.040-178.346-69.12-256.854-108.374-140.8-186.88-186.88c-78.506-46.080-164.694-69.12-256.854-69.12s-178.346 23.040-256.854 69.12c-78.506 46.080-140.8 108.374-186.88 186.88s-69.12 164.694-69.12 256.854 23.040 178.346 69.12 256.854 108.374 140.8 187.734 186.88zM752.64 1297.066c-75.094-75.094-112.64-165.546-112.64-272.214s37.546-197.12 111.786-272.214c74.24-74.24 165.546-111.786 272.214-111.786s197.12 37.546 272.214 111.786 111.786 165.546 111.786 272.214-37.546 197.12-111.786 272.214-165.546 111.786-272.214 111.786-197.12-36.694-271.36-110.934z" />
<glyph unicode="&#xe115;" glyph-name="Setting" d="M1297.066 1296.214c-34.986 34.986-75.094 62.294-122.026 81.92s-96.426 29.866-150.186 29.866-103.254-10.24-150.186-29.866-87.040-46.934-122.026-81.92-62.294-75.094-81.92-122.026-29.866-96.426-29.866-150.186 10.24-103.254 29.866-150.186 46.934-87.040 81.92-122.026 75.094-62.294 122.026-81.92 96.426-29.866 150.186-29.866 103.254 10.24 150.186 29.866 87.040 46.934 122.026 81.92 62.294 75.094 81.92 122.026 29.866 96.426 29.866 150.186-10.24 103.254-29.866 150.186-46.934 87.040-81.92 122.026zM1261.226 925.014c-13.654-30.72-31.574-58.026-54.614-81.92s-50.346-41.814-81.92-54.614-64-19.626-99.84-19.626-68.266 6.826-99.84 19.626-58.026 31.574-81.92 54.614-41.814 50.346-54.614 81.92-19.626 64-19.626 99.84 6.826 68.266 19.626 99.84 31.574 58.026 54.614 81.92 50.346 41.814 81.92 54.614 64 19.626 99.84 19.626 68.266-6.826 99.84-19.626 58.026-31.574 81.92-54.614 41.814-50.346 54.614-81.92 19.626-64 19.626-99.84-6.826-68.266-19.626-99.84zM1974.614 768c-11.946 18.774-27.306 35.84-45.226 52.906s-37.546 31.574-58.026 46.080-40.106 29.866-58.026 45.226-33.28 32.426-45.226 50.346-17.92 38.4-17.92 60.586 5.974 43.52 17.92 61.44 26.454 34.134 44.374 50.346 36.694 30.72 58.026 44.374 40.106 29.014 58.026 44.374 32.426 32.426 44.374 51.2 17.92 40.106 17.92 64.854c0 12.8-3.414 28.16-9.386 46.934s-13.654 38.4-23.894 59.734-20.48 42.666-33.28 64.854-25.6 43.52-38.4 63.146-24.746 38.4-36.694 54.614-22.186 29.866-30.72 40.106c-13.654 15.36-28.16 27.306-44.374 35.84s-34.986 12.8-55.466 12.8c-23.040 0-46.080-4.266-69.12-12.8s-45.226-17.92-67.414-28.16-45.226-19.626-67.414-28.16-46.080-12.8-69.12-12.8c-29.014 0-54.614 9.386-76.8 28.16s-35.84 42.666-40.96 70.826c-5.974 32.426-11.946 64.854-17.066 97.28s-11.094 64-17.066 97.28c-5.12 28.16-17.066 51.2-34.986 69.12s-40.96 29.866-69.12 34.986c-27.306 5.12-54.614 9.386-82.774 11.094s-53.76 3.414-81.92 3.414-53.76 0-81.066-2.56-54.614-5.12-81.066-9.386c-28.16-5.12-51.2-17.066-70.826-34.986s-31.574-40.96-36.694-69.12l-35.84-196.266c-5.12-29.014-18.774-52.906-40.106-71.68s-47.786-27.306-77.654-27.306c-23.040 0-46.080 4.266-68.266 12.8s-44.374 17.92-66.56 28.16-44.374 19.626-65.706 28.16-44.374 12.8-68.266 12.8c-19.626 0-37.546-4.266-54.614-11.946s-32.426-19.626-45.226-34.134c-8.534-9.386-18.774-22.186-30.72-39.254s-24.746-34.986-37.546-55.466-25.6-41.814-39.254-64-24.746-44.374-34.134-65.706-17.92-40.96-24.746-59.734-9.386-34.134-9.386-46.080c0-23.894 5.974-45.226 17.92-64s27.306-35.84 45.226-52.906 37.546-31.574 58.026-46.080 40.106-29.866 58.026-45.226 33.28-32.426 45.226-50.346 17.92-38.4 17.92-60.586-5.974-43.52-17.92-61.44-26.454-34.134-44.374-50.346-36.694-30.72-58.026-44.374-40.106-29.014-58.026-44.374-32.426-33.28-44.374-52.054-17.92-40.106-17.92-64.854c0-12.8 3.414-28.16 9.386-46.934s13.654-38.4 23.894-59.734 20.48-42.666 33.28-64.854 25.6-43.52 38.4-63.146 24.746-38.4 36.694-54.614 22.186-29.866 30.72-40.106c13.654-15.36 28.16-27.306 45.226-35.84s34.986-12.8 54.614-12.8c23.040 0 46.080 4.266 69.12 12.8s45.226 17.92 67.414 28.16 45.226 19.626 67.414 28.16 46.080 12.8 69.12 12.8c29.014 0 54.614-9.386 76.8-28.16s35.84-42.666 40.96-70.826c5.974-32.426 11.946-64 17.066-96.426s11.094-64.854 17.066-96.426c5.12-28.16 17.066-51.2 34.986-69.12s40.96-29.866 69.12-35.84c27.306-5.12 54.614-9.386 82.774-11.094s56.32-3.414 83.626-3.414 54.614 0 81.92 2.56 53.76 5.12 80.214 9.386c29.014 5.12 52.054 17.066 70.826 34.134s30.72 40.96 35.84 69.12c3.414 17.066 6.826 34.134 9.386 50.346s5.974 33.28 9.386 50.346c4.266 21.334 7.68 43.52 11.094 66.56s10.24 44.374 18.774 63.146 21.334 34.134 36.694 46.080 38.4 17.92 68.266 17.92c21.334 0 43.52-4.266 65.706-12.8s45.226-17.92 68.266-28.16 45.226-19.626 68.266-28.16 45.226-12.8 67.414-12.8c19.626 0 37.546 4.266 53.76 11.946s31.574 19.626 44.374 34.134c8.534 10.24 18.774 23.040 31.574 40.106s24.746 34.986 38.4 54.614 25.6 40.96 39.254 63.146 24.746 43.52 34.134 64.854 17.92 40.96 24.746 59.734 9.386 34.134 9.386 47.786c0 23.894-5.974 45.226-17.92 64zM1863.68 704c-17.92-44.374-39.254-87.894-63.146-129.706s-52.054-81.066-82.774-118.614c-17.92 6.826-38.4 14.506-62.294 23.894s-47.786 17.92-72.534 27.306-49.494 16.214-73.386 22.186-44.374 9.386-62.294 9.386c-53.76 0-101.546-15.36-143.36-45.226s-71.68-69.974-89.6-120.32c-4.266-12.8-9.386-29.014-13.654-50.346s-9.386-42.666-12.8-64.854-7.68-45.226-11.094-66.56-5.974-40.106-9.386-54.614c-23.040-3.414-46.934-5.974-70.826-7.68s-47.786-2.56-71.68-2.56c-48.64 0-97.28 4.266-145.066 11.946l-34.134 195.414c-6.826 35.84-20.48 69.12-41.814 98.986s-47.786 53.76-79.36 71.68c-38.4 22.186-79.36 33.28-124.586 33.28-28.16 0-55.466-4.266-81.92-13.654l-187.734-68.266h-0.854c-28.16 34.986-52.906 70.826-75.094 108.374s-41.814 76.8-57.174 118.614c0 0-2.56 4.266-5.12 11.094s-4.266 11.094-4.266 11.094v0l151.040 127.146c28.16 23.040 49.494 52.054 65.706 85.334s23.894 68.266 23.894 104.96-7.68 71.68-23.040 104.106-36.694 61.44-64.854 84.48l-152.746 129.706c17.066 46.080 38.4 89.6 63.146 130.56s52.054 80.214 82.774 118.614h0.854l184.32-68.266h0.854c26.454-10.24 54.614-15.36 85.334-15.36s59.734 5.12 86.186 15.36 50.346 24.746 71.68 42.666 39.254 39.254 53.76 64.854 24.746 52.054 30.72 81.92c7.68 32.426 13.654 65.706 18.774 98.134s11.094 65.706 17.066 98.986c23.040 3.414 46.934 5.974 70.826 7.68s47.786 2.56 71.68 2.56c48.64 0 97.28-4.266 145.066-11.946l34.134-195.414c6.826-35.84 20.48-69.12 41.814-98.986s47.786-53.76 79.36-71.68c38.4-22.186 79.36-33.28 124.586-33.28 28.16 0 55.466 4.266 81.92 13.654l187.734 68.266h0.854c28.16-34.986 52.906-70.826 75.094-108.374s41.814-76.8 57.174-118.614c0 0 2.56-4.266 5.12-11.094s4.266-11.094 4.266-11.094v0l-151.040-127.146c-28.16-23.040-49.494-52.054-65.706-85.334s-23.894-68.266-23.894-104.96 7.68-71.68 23.040-104.106 36.694-61.44 64.854-84.48l152.746-129.706z" />
<glyph unicode="&#xe116;" glyph-name="Video" d="M2038.614 1520.64c-6.826 15.36-16.214 29.014-28.16 40.106s-24.746 21.334-40.106 28.16-31.574 10.24-48.64 10.24c-29.014 0-54.614-8.534-76.8-25.6l-307.2-230.4v192c0 34.134-6.826 66.56-19.626 97.28s-31.574 58.026-53.76 81.92-49.494 41.814-79.36 56.32-63.146 21.334-97.28 21.334h-1035.946c-34.986 0-67.414-6.826-97.28-21.334s-57.174-32.426-79.36-56.32-40.96-50.346-53.76-81.92-20.48-62.294-20.48-96.426v-1029.12c0-34.986 6.826-67.414 21.334-97.28s32.426-57.174 56.32-79.36 50.346-40.96 81.92-53.76 63.146-19.626 97.28-19.626h1028.266c34.986 0 67.414 6.826 97.28 21.334s57.174 32.426 79.36 56.32 40.96 50.346 53.76 81.92 19.626 63.146 19.626 97.28v192l307.2-230.4c23.040-17.066 48.64-25.6 76.8-25.6 17.066 0 34.134 3.414 49.494 10.24s29.014 16.214 40.96 27.306 20.48 25.6 27.306 40.96 10.24 32.426 10.24 49.494v894.294c0 17.066-3.414 33.28-10.24 48.64zM1408.854 512c0-17.92-3.414-34.986-10.24-50.346s-16.214-29.014-27.306-40.106-24.746-20.48-40.106-27.306-32.426-10.24-50.346-10.24h-1024c-17.92 0-34.986 3.414-50.346 10.24s-29.014 15.36-40.106 27.306-20.48 24.746-27.306 40.106-10.24 32.426-10.24 50.346v1024c0 17.92 3.414 34.986 10.24 50.346s16.214 29.014 27.306 40.106 24.746 20.48 40.106 27.306 32.426 10.24 50.346 10.24h1024c17.066 0 34.134-3.414 49.494-10.24s29.014-16.214 40.96-27.306 20.48-25.6 27.306-40.96 10.24-32.426 10.24-49.494v-1024zM1920.854 576l-384 288.426v320l384 288.426v-896z" />
<glyph unicode="&#xe117;" glyph-name="Sync" d="M64 960c-17.066 0-32.426 5.974-45.226 18.774s-18.774 27.306-18.774 45.226c0 93.866 11.946 184.32 36.694 272.214s58.88 168.96 103.254 244.906 98.134 145.066 160.426 207.36 131.414 116.054 207.36 160.426 157.866 78.506 244.906 103.254 178.346 36.694 272.214 36.694c72.534 0 144.214-7.68 215.894-23.894s139.094-38.4 204.8-68.266 128-65.706 186.88-109.226 111.786-92.16 160.426-146.774v283.306c0 17.066 5.974 32.426 18.774 45.226s27.306 18.774 45.226 18.774 32.426-5.974 45.226-18.774 18.774-27.306 18.774-45.226c0-81.066 0-161.28 0-240.64s0-160.426 0-240.64c0-11.094 0-22.186-2.56-33.28s-4.266-21.334-9.386-29.866-11.094-16.214-19.626-22.186-19.626-8.534-34.134-8.534h-512c-17.066 0-32.426 5.974-45.226 18.774s-18.774 27.306-18.774 45.226 5.974 32.426 18.774 45.226 27.306 18.774 45.226 18.774h414.72c-41.814 59.734-90.454 113.494-144.214 161.28s-112.64 87.894-175.786 121.174-129.706 58.026-199.68 75.094-141.654 25.6-215.040 25.6c-69.12 0-137.386-7.68-203.946-23.894s-130.56-38.4-191.146-68.266-117.76-66.56-171.52-110.080-100.694-93.014-143.36-147.626c-59.734-78.506-105.814-164.694-138.24-257.706s-47.786-189.44-47.786-288.426c0-17.066-5.974-32.426-18.774-45.226s-27.306-18.774-45.226-18.774zM2048 1024c0-93.866-11.946-184.32-36.694-271.36s-58.88-168.106-103.254-244.906-98.134-145.066-160.426-207.36-131.414-116.054-207.36-160.426-157.866-79.36-244.906-103.254-177.494-36.694-271.36-36.694c-73.386 0-145.92 7.68-216.746 23.040s-139.094 37.546-205.654 67.414-128 65.706-186.88 109.226-111.786 92.16-160.426 147.626v-283.306c0-17.066-5.974-32.426-18.774-45.226s-27.306-18.774-45.226-18.774-32.426 5.974-45.226 18.774-18.774 27.306-18.774 45.226c0 81.066 0 161.28 0 240.64s0 160.426 0 240.64c0 10.24 0 21.334 2.56 33.28s4.266 21.334 9.386 30.72 11.094 16.214 19.626 22.186 19.626 8.534 34.134 8.534h512c17.066 0 32.426-5.974 45.226-18.774s18.774-27.306 18.774-45.226-5.974-32.426-18.774-45.226-27.306-18.774-45.226-18.774h-414.72c41.814-60.586 90.454-114.346 144.214-162.134s113.494-87.894 176.64-120.32 129.706-58.026 199.68-75.094 141.654-25.6 215.040-25.6c68.266 0 136.534 7.68 203.094 23.894s131.414 39.254 192 69.12 117.76 66.56 170.666 110.080 100.694 92.16 142.506 146.774c59.734 78.506 105.814 164.694 138.24 257.706s47.786 189.44 47.786 288.426c0 17.066 5.974 32.426 18.774 45.226s27.306 18.774 45.226 18.774 32.426-5.974 45.226-18.774 18.774-27.306 18.774-45.226z" />
<glyph unicode="&#xe118;" glyph-name="Download" d="M1728 127.146c17.92 0 32.426-5.974 45.226-18.774s18.774-27.306 18.774-45.226c0-16.214-5.12-29.866-15.36-40.96s-22.186-18.774-37.546-21.334h-1419.094c-17.92-0.854-32.426 5.12-45.226 17.92s-18.774 27.306-18.774 45.226c0 16.214 5.12 29.866 15.36 40.96s22.186 18.774 37.546 21.334h1419.094zM1024 2048c16.214 0 29.866-5.12 40.96-15.36s18.774-22.186 21.334-37.546v-1521.494l467.626 467.626c11.094 11.094 23.894 17.066 39.254 18.774s29.014-1.706 41.814-11.094l8.534-7.68c11.094-11.094 17.066-23.894 18.774-40.106s-1.706-29.866-11.094-42.666l-5.974-8.534-575.146-575.146c-9.386-9.386-20.48-15.36-34.134-17.92h-12.8c-22.186-0.854-39.254 6.826-51.2 22.186l-570.026 570.026c-12.8 12.8-18.774 28.16-18.774 46.080s5.974 33.28 18.774 45.226c11.094 11.094 23.894 17.066 39.254 18.774s29.014-1.706 41.814-11.094l8.534-7.68 466.774-466.774v1510.4c0.854 17.92 7.68 32.426 19.626 45.226s28.16 18.774 46.080 18.774z" />
<glyph unicode="&#xe119;" glyph-name="Mail" d="M1728.854 1791.146c88.746 0 163.84-31.574 226.134-93.866s93.866-138.24 93.866-226.134v-1024c0-88.746-31.574-163.84-93.866-226.134s-138.24-93.866-226.134-93.866h-1408c-88.746 0-163.84 31.574-226.134 93.866s-93.866 138.24-93.866 226.134v1024c0 88.746 31.574 163.84 93.866 226.986s138.24 93.866 226.134 93.866h1408zM1728.854 1664h-1408c-53.76 0-98.986-18.774-136.534-56.32s-56.32-82.774-56.32-136.534v-38.4l896.854-526.506 896.854 527.36v37.546c0 53.76-18.774 98.986-56.32 136.534s-82.774 56.32-136.534 56.32zM1921.706 1285.12l-863.574-508.586c-17.066-10.24-34.986-11.946-54.614-5.12l-10.24 5.12-864.426 508.586v-837.974c0-53.76 18.774-98.986 56.32-135.68s82.774-55.466 136.534-55.466h1407.146c53.76 0 98.986 18.774 136.534 55.466s56.32 81.92 56.32 135.68v837.974z" />
<glyph unicode="&#xe11a;" glyph-name="Find" d="M1535.146 1216.854c0-168.96-54.614-320-163.84-451.414l529.066-527.36c12.8-12.8 18.774-27.306 18.774-45.226s-5.974-33.28-18.774-46.080c-11.094-11.094-23.894-17.066-40.106-18.774s-29.866 1.706-42.666 11.094l-8.534 7.68-527.36 529.066c-131.414-109.226-282.454-163.84-451.414-163.84-127.146 0-244.906 31.574-353.28 94.72s-193.706 148.48-256 256.854c-63.146 108.374-94.72 226.134-94.72 354.134s31.574 244.906 94.72 353.28c63.146 107.52 148.48 193.706 256 256s225.28 94.72 353.28 94.72 245.76-31.574 354.134-94.72 193.706-148.48 256.854-256c63.146-107.52 94.72-225.28 94.72-353.28zM830.294 1791.146c-158.72 0-293.546-56.32-406.186-168.96s-168.96-248.32-168.96-406.186 56.32-295.254 168.96-407.894 248.32-168.96 406.186-168.96 293.546 56.32 407.040 169.814 169.814 248.32 169.814 407.040-56.32 293.546-168.96 406.186-248.32 168.96-407.894 168.96z" />
<glyph unicode="&#xe11b;" glyph-name="Help" d="M1535.146 1408c0-42.666-5.12-82.774-16.214-122.026-11.094-38.4-23.040-70.826-35.84-96.426s-32.426-52.906-58.88-82.774c-26.454-29.866-46.934-52.054-62.294-66.56s-38.4-34.986-69.12-61.44l-3.414-3.414c-36.694-31.574-64-56.32-81.066-73.386-17.92-17.066-37.546-40.106-59.734-69.12s-38.4-58.88-47.786-89.6-13.654-65.706-13.654-104.106v-64c0-17.92-5.974-32.426-18.774-46.080-12.8-12.8-27.306-19.626-45.226-19.626s-32.426 6.826-45.226 19.626c-12.8 12.8-18.774 28.16-18.774 46.080v64c0 42.666 5.12 82.774 16.214 122.026 11.094 38.4 23.040 70.826 35.84 96.426s32.426 52.906 58.88 82.774c26.454 29.866 46.934 52.054 62.294 66.56s38.4 34.986 69.12 61.44l3.414 3.414c36.694 31.574 64 56.32 81.066 73.386 17.92 17.066 37.546 40.106 59.734 69.12s37.546 58.88 46.934 89.6 13.654 65.706 13.654 104.106c0 105.814-37.546 196.266-112.64 271.36s-165.546 112.64-271.36 112.64-196.266-37.546-271.36-112.64-112.64-165.546-112.64-271.36c0-17.92-5.974-32.426-18.774-45.226s-27.306-18.774-45.226-18.774-32.426 5.974-46.080 18.774-19.626 27.306-19.626 45.226c0 140.8 50.346 261.12 150.186 361.814s221.014 150.186 362.666 150.186 262.826-50.346 362.666-150.186c99.84-100.694 150.186-221.014 150.186-361.814zM1091.414 157.014c-18.774-18.774-41.814-29.014-69.12-29.014s-49.494 9.386-68.266 28.16c-18.774 18.774-28.16 41.814-28.16 68.266s9.386 49.494 28.16 68.266c18.774 18.774 41.814 28.16 68.266 28.16s49.494-9.386 68.266-28.16c18.774-18.774 28.16-41.814 28.16-68.266s-9.386-49.494-27.306-67.414z" />
<glyph unicode="&#xe11c;" glyph-name="Upload" d="M1709.226 2029.226c-12.8 12.8-28.16 18.774-45.226 18.774h-1280c-17.066 0-32.426-5.974-45.226-18.774s-18.774-27.306-18.774-45.226 5.974-32.426 18.774-45.226 27.306-18.774 45.226-18.774h1280c17.066 0 32.426 5.974 45.226 18.774s18.774 27.306 18.774 45.226-5.974 32.426-18.774 45.226zM1071.786 1769.814c-7.68 7.68-14.506 12.8-22.186 16.214s-16.214 5.12-25.6 5.12-18.774-1.706-25.6-5.12-14.506-9.386-22.186-16.214l-572.586-572.586c-12.8-12.8-18.774-27.306-18.774-45.226s5.974-32.426 18.774-45.226 27.306-18.774 45.226-18.774 32.426 5.974 45.226 18.774l466.774 465.92v-1508.694c0-17.066 5.974-32.426 18.774-45.226s27.306-18.774 45.226-18.774 32.426 5.974 45.226 18.774 18.774 27.306 18.774 45.226v1508.694l466.774-465.92c6.826-5.974 13.654-10.24 20.48-13.654s15.36-5.12 24.746-5.12c17.066 0 32.426 5.974 45.226 18.774s18.774 27.306 18.774 45.226-5.974 32.426-18.774 45.226l-574.294 572.586z" />
<glyph unicode="&#xe11d;" glyph-name="Emoji" d="M626.346 1966.934c126.294 53.76 259.414 81.066 397.654 81.066s270.506-27.306 397.654-81.066 235.52-127.146 326.826-218.454c91.306-91.306 163.84-200.534 218.454-326.826s81.066-259.414 81.066-397.654-27.306-270.506-81.066-397.654-127.146-235.52-218.454-326.826c-91.306-91.306-200.534-163.84-326.826-218.454s-259.414-81.066-397.654-81.066-270.506 27.306-397.654 81.066-235.52 127.146-326.826 218.454c-91.306 91.306-163.84 200.534-218.454 326.826s-81.066 259.414-81.066 397.654 27.306 270.506 81.066 397.654 127.146 235.52 218.454 326.826c91.306 91.306 200.534 163.84 326.826 218.454zM198.826 1373.014c-47.786-110.934-71.68-226.986-71.68-349.014s23.894-238.080 71.68-348.16 110.934-205.654 191.146-285.866 174.934-143.36 285.866-191.146 226.134-71.68 348.16-71.68 238.080 23.894 348.16 71.68c110.080 47.786 205.654 110.934 285.866 191.146s143.36 174.934 191.146 285.866 71.68 226.134 71.68 348.16-23.894 238.080-71.68 348.16-110.934 205.654-191.146 285.866-174.934 143.36-285.866 191.146c-110.934 47.786-226.134 71.68-348.16 71.68s-238.080-23.894-348.16-71.68-205.654-110.934-285.866-191.146-143.36-174.934-191.146-285.014zM448 1024h1151.146c18.774 0 34.986-6.826 47.786-21.334 12.8-13.654 17.92-29.866 16.214-48.64-16.214-161.28-81.92-296.96-198.826-406.186s-263.68-163.84-440.32-163.84-323.414 54.614-441.174 163.84-183.466 244.906-199.68 406.186c-1.706 18.774 3.414 35.84 16.214 48.64 12.8 14.506 28.16 21.334 47.786 21.334zM575.146 1270.614c-2.56-17.92-11.094-31.574-24.746-41.814s-29.866-14.506-47.786-11.946-31.574 11.094-41.814 25.6-14.506 30.72-11.946 47.786c8.534 52.906 33.28 95.574 75.946 129.706 41.814 34.134 91.306 51.2 146.774 51.2s104.96-17.066 147.626-51.2 68.266-77.654 75.946-129.706c2.56-17.92-1.706-33.28-11.946-47.786s-24.746-23.040-41.814-25.6-33.28 1.706-47.786 11.946-23.040 24.746-25.6 41.814c-3.414 19.626-13.654 37.546-31.574 52.054s-39.254 22.186-64.854 22.186-47.786-6.826-64.854-22.186-28.16-31.574-31.574-52.054zM1524.054 896.854h-1001.814c26.454-112.64 84.48-204.8 174.080-276.48s197.974-108.374 327.68-108.374 238.080 35.84 326.826 108.374c88.746 71.68 146.774 164.694 173.226 276.48zM1279.146 1270.614c-2.56-17.92-11.094-31.574-24.746-41.814s-29.866-14.506-47.786-11.946-31.574 11.094-41.814 25.6c-10.24 14.506-14.506 30.72-11.946 47.786 8.534 52.906 33.28 95.574 75.946 129.706s91.306 51.2 146.774 51.2 104.96-17.066 147.626-51.2 68.266-77.654 75.946-129.706c2.56-17.92-1.706-33.28-11.946-47.786s-24.746-23.040-41.814-25.6-33.28 1.706-47.786 11.946-22.186 24.746-24.746 41.814c-3.414 19.626-13.654 37.546-31.574 52.054s-40.106 22.186-65.706 22.186-47.786-6.826-64.854-22.186-28.16-31.574-31.574-52.054z" />
<glyph unicode="&#xe11e;" glyph-name="TwoPage" d="M2029.226 1106.774c-12.8 31.574-31.574 58.88-55.466 82.774l-527.36 527.36c-23.894 23.894-52.054 42.666-82.774 55.466s-64 19.626-98.134 19.626h-1013.76c-33.28 0-64.854-6.826-95.574-20.48s-57.174-32.426-80.214-54.614-40.96-49.494-54.614-80.214-20.48-62.294-20.48-95.574v-1034.24c0-33.28 6.826-64.854 20.48-95.574s32.426-57.174 54.614-80.214 49.494-40.96 80.214-54.614 62.294-20.48 95.574-20.48h1546.24c33.28 0 64.854 6.826 95.574 20.48s57.174 32.426 80.214 54.614 40.96 49.494 54.614 80.214 20.48 62.294 20.48 95.574v501.76c0 34.134-6.826 66.56-19.626 98.134zM1408.854 1573.546l422.4-422.4h-294.4c-17.92 0-34.986 3.414-50.346 10.24s-29.014 15.36-40.106 27.306-20.48 24.746-27.306 40.106-10.24 32.426-10.24 50.346v294.4zM896.854 383.146h-640c-17.92 0-34.986 3.414-50.346 10.24s-29.014 15.36-40.106 27.306-20.48 24.746-27.306 40.106-10.24 32.426-10.24 50.346v1024.854c0 17.92 3.414 34.986 10.24 50.346s16.214 29.014 27.306 40.106 24.746 20.48 40.106 27.306 32.426 10.24 50.346 10.24h640v-1280zM1920.854 511.146c0-17.92-3.414-34.986-10.24-50.346s-16.214-29.014-27.306-40.106-24.746-20.48-40.106-27.306-32.426-10.24-50.346-10.24h-768v1280.854h240.64c6.826 0 11.946 0 15.36-0.854v-383.146c0-34.134 6.826-66.56 19.626-97.28s31.574-58.026 53.76-81.92 49.494-41.814 79.36-56.32 63.146-21.334 97.28-21.334h388.266s0.854-8.534 0.854-15.36v-496.64z" />
<glyph unicode="&#xe11f;" glyph-name="LeaveChat" d="M2027.52 727.894c-13.654 48.64-32.426 94.72-58.026 137.386-10.24 17.066-21.334 33.28-33.28 49.494-11.094 14.506-22.186 29.014-34.986 42.666v0c-7.68 8.534-13.654 17.066-22.186 24.746-34.986 34.986-74.24 65.706-116.054 90.454s-87.894 44.374-136.534 58.026-98.986 20.48-151.894 20.48c-79.36 0-153.6-15.36-222.72-45.226s-130.56-71.68-181.76-123.734-93.014-112.64-122.88-182.614-45.226-144.214-45.226-223.574 14.506-155.306 44.374-225.28 70.826-130.56 122.026-182.614c11.094-11.094 23.894-19.626 34.986-29.014v0c21.334-17.92 42.666-34.986 66.56-50.346 24.746-16.214 51.2-31.574 80.214-43.52 8.534-3.414 17.066-6.826 26.454-9.386v0c62.294-23.040 128-34.986 197.974-34.986 79.36 0 153.6 15.36 222.72 45.226s130.56 71.68 181.76 123.734 93.014 112.64 122.88 182.614 45.226 144.214 45.226 223.574c0 52.906-6.826 103.254-20.48 152.746zM1424.214 268.8l-255.146 256c-13.654 13.654-20.48 30.72-20.48 51.2s6.826 36.694 20.48 51.2l255.146 256c13.654 13.654 30.72 21.334 50.346 21.334s36.694-6.826 50.346-21.334 20.48-30.72 20.48-51.2-6.826-36.694-20.48-51.2l-139.946-140.8h344.746c17.066 0 32.426-5.974 44.374-18.774 9.386-9.386 13.654-20.48 16.214-32.426v0s2.56-8.534 2.56-12.8c0-17.066-5.974-32.426-18.774-45.226-5.12-5.12-10.24-7.68-16.214-11.094-4.266-2.56-9.386-4.266-13.654-5.12v0c-5.12-0.854-9.386-2.56-14.506-2.56h-344.746l139.946-140.8c13.654-13.654 20.48-30.72 20.48-51.2 0-3.414-1.706-6.826-1.706-10.24-0.854-7.68-2.56-14.506-5.974-21.334s-6.826-13.654-12.8-19.626c-13.654-13.654-30.72-21.334-50.346-21.334-6.826 0-11.946 1.706-17.92 3.414v0c-11.946 3.414-23.040 8.534-32.426 17.92zM864.426 149.334c-96.426 17.066-190.294 48.64-275.626 96.426l-23.894 13.654-424.96-118.614 118.614 425.814-13.654 23.894c-73.386 131.414-111.786 281.6-111.786 433.494 0 491.52 397.654 890.026 885.76 890.026 430.934 0 790.186-310.614 869.546-721.066 39.254-26.454 77.654-56.32 110.934-90.454 12.8-12.8 23.894-27.306 36.694-41.814-19.626 546.986-467.626 986.454-1017.174 986.454s-1018.88-458.24-1018.88-1023.146c0-162.986 39.254-325.974 113.494-470.186l1.706-3.414-110.934-399.36c-5.974-21.334-5.974-42.666 0-64 17.92-63.146 82.774-99.84 145.066-81.92l397.654 111.786 3.414-1.706c137.386-71.68 290.986-109.226 447.146-112.64-17.066 14.506-34.134 29.014-49.494 45.226-31.574 31.574-58.88 65.706-84.48 102.4z" />
<glyph unicode="&#xe120;" glyph-name="MailForward" d="M314.026 127.146c-41.814 0-81.92 8.534-120.32 25.6s-70.826 39.254-99.84 68.266-51.2 61.44-68.266 99.84-24.746 76.8-24.746 118.614v1038.506c0 41.814 8.534 81.92 25.6 120.32s39.254 70.826 68.266 99.84 61.44 51.2 99.84 68.266 77.654 25.6 120.32 25.6h1420.8c41.814 0 81.92-8.534 120.32-25.6s70.826-39.254 99.84-68.266 51.2-61.44 68.266-99.84 25.6-77.654 25.6-120.32v-444.586c-18.774 23.040-38.4 46.080-59.734 67.414s-44.374 40.96-68.266 58.88v134.826l-109.226-64.854c-46.934 23.894-97.28 43.52-151.894 58.026l261.12 156.16v28.16c0 25.6-5.12 50.346-15.36 74.24s-23.894 43.52-41.814 61.44-38.4 31.574-61.44 41.814-47.786 15.36-74.24 15.36h-1408c-25.6 0-50.346-5.12-74.24-15.36s-43.52-23.894-61.44-41.814-31.574-38.4-41.814-61.44-15.36-47.786-15.36-74.24v-28.16l742.4-444.586c-12.8-17.066-24.746-34.986-34.986-53.76s-20.48-37.546-29.866-57.174l-676.694 405.334v-847.36c0-25.6 5.12-50.346 15.36-74.24s23.894-43.52 41.814-61.44 38.4-31.574 61.44-41.814 47.786-15.36 74.24-15.36h488.96c11.094-23.040 23.894-44.374 36.694-65.706s27.306-41.814 42.666-62.294h-576zM896.854 575.146c0 79.36 15.36 153.6 45.226 223.574s71.68 131.414 123.734 182.614 112.64 93.014 182.614 123.734 145.066 45.226 223.574 45.226c52.906 0 103.254-6.826 152.746-20.48s94.72-33.28 137.386-58.026 81.92-55.466 116.906-90.454 65.706-74.24 90.454-116.906 44.374-88.746 58.026-137.386 20.48-99.84 20.48-152.746c0-79.36-15.36-153.6-45.226-223.574s-71.68-131.414-123.734-182.614-112.64-93.014-182.614-123.734-145.066-45.226-223.574-45.226-155.306 15.36-225.28 45.226-131.414 70.826-182.614 122.88-93.014 112.64-122.88 182.614-45.226 145.066-45.226 225.28zM1472.854 247.466c19.626 0 36.694 6.826 51.2 21.334l256 256c13.654 13.654 21.334 30.72 21.334 51.2s-6.826 36.694-21.334 51.2l-256 256c-13.654 13.654-30.72 21.334-51.2 21.334s-36.694-6.826-51.2-21.334-21.334-30.72-21.334-51.2 6.826-36.694 21.334-51.2l140.8-140.8h-345.6c-17.066 0-32.426-5.974-45.226-18.774s-18.774-27.306-18.774-45.226 5.974-32.426 18.774-45.226 27.306-18.774 45.226-18.774h345.6l-140.8-140.8c-13.654-13.654-21.334-30.72-21.334-51.2s6.826-36.694 21.334-51.2 30.72-21.334 51.2-21.334z" />
<glyph unicode="&#xe121;" glyph-name="Clock" d="M1844.054 1460.906c-50.346 117.76-119.466 221.014-204.8 306.346s-188.586 153.6-306.346 204.8c-117.76 50.346-243.2 75.946-372.906 75.946s-254.294-25.6-372.906-75.946c-118.614-50.346-221.014-119.466-306.346-204.8s-153.6-188.586-204.8-306.346c-50.346-118.614-75.946-243.2-75.946-372.906s25.6-254.294 75.946-372.906c50.346-117.76 119.466-221.014 204.8-306.346s188.586-153.6 306.346-204.8c117.76-50.346 243.2-75.946 372.906-75.946s254.294 25.6 372.906 75.946c118.614 50.346 221.014 119.466 306.346 204.8s153.6 188.586 204.8 306.346c50.346 118.614 75.946 243.2 75.946 372.906s-25.6 254.294-75.946 372.906zM960 259.414c-111.786 0-220.16 22.186-321.706 65.706s-190.294 103.254-263.68 176.64c-73.386 73.386-133.12 162.134-176.64 263.68s-65.706 209.92-65.706 321.706 22.186 220.16 65.706 321.706 103.254 190.294 176.64 263.68c73.386 73.386 162.134 133.12 263.68 176.64s209.92 65.706 321.706 65.706 220.16-22.186 322.56-65.706c101.546-43.52 190.294-103.254 263.68-176.64s133.12-162.134 176.64-263.68 65.706-209.92 65.706-321.706-22.186-220.16-65.706-321.706-103.254-190.294-176.64-263.68c-73.386-73.386-162.134-133.12-263.68-176.64s-209.92-65.706-321.706-65.706zM1319.254 1093.974h-291.84v542.72c-3.414 15.36-11.094 28.16-23.040 38.4s-26.454 15.36-42.666 15.36c-17.92 0-33.28-6.826-46.080-19.626s-19.626-28.16-19.626-46.080v-607.574c2.56-15.36 10.24-28.16 23.040-38.4s27.306-15.36 42.666-15.36h368.64c15.36 2.56 28.16 10.24 38.4 23.040 10.24 11.946 15.36 27.306 15.36 43.52 0 17.92-6.826 33.28-19.626 46.080s-28.16 19.626-46.080 19.626z" />
<glyph unicode="&#xe122;" glyph-name="Send" d="M2012.16 1146.026l-1920 896c-8.534 4.266-17.066 5.974-27.306 5.974-18.774 0-34.134-5.974-46.080-18.774s-17.92-27.306-17.92-46.080v-9.386s0-5.12 1.706-7.68l251.734-878.080-251.734-878.080s-1.706-5.12-1.706-7.68v-9.386c0-18.774 5.974-34.134 17.92-46.080s27.306-18.774 46.080-18.774c10.24 0 18.774 1.706 27.306 5.974l1920 896c11.094 5.12 20.48 12.8 27.306 23.894s10.24 22.186 10.24 34.134c0 27.306-11.946 46.934-36.694 58.026zM164.694 308.906l204.8 715.094h847.36c17.066 0 32.426 5.974 45.226 18.774s18.774 27.306 18.774 45.226-5.974 32.426-18.774 45.226-27.306 18.774-45.226 18.774h-846.506l-205.654 715.094 1669.12-779.094-1669.12-779.094z" />
<glyph unicode="&#xe123;" glyph-name="Crop1" d="M510.294 1984v-1280c0-52.906 18.774-98.986 56.32-136.534s82.774-56.32 136.534-56.32h1280c17.92 0 32.426-5.974 45.226-18.774s18.774-27.306 18.774-45.226-5.974-32.426-18.774-45.226-27.306-18.774-45.226-18.774h-320v-320c0-17.92-5.974-32.426-18.774-45.226s-27.306-18.774-45.226-18.774-32.426 5.974-45.226 18.774-18.774 27.306-18.774 45.226v320h-832c-88.746 0-163.84 31.574-226.134 93.866s-93.866 138.24-93.866 226.134v833.706h-320c-17.92 0-32.426 5.974-45.226 18.774s-17.92 27.306-17.92 44.374 5.974 32.426 18.774 45.226 27.306 18.774 45.226 18.774h320v320c0 17.92 5.974 32.426 18.774 45.226s26.454 18.774 44.374 18.774 32.426-5.974 45.226-18.774 18.774-27.306 18.774-45.226zM1535.146 1344c0 52.906-18.774 98.986-56.32 136.534s-82.774 56.32-136.534 56.32h-703.146v127.146h704c88.746 0 163.84-31.574 226.134-93.866s93.866-138.24 93.866-226.134v-704h-127.146v704z" />
<glyph unicode="&#xe124;" glyph-name="RotateCamera" d="M128.854 1472c0 25.6 5.12 50.346 15.36 74.24s23.894 43.52 41.814 61.44 38.4 31.574 61.44 41.814 47.786 15.36 74.24 15.36h1381.546l-146.774-146.774c-12.8-12.8-18.774-27.306-18.774-45.226s5.974-32.426 18.774-45.226 27.306-18.774 45.226-18.774 32.426 5.974 45.226 18.774l256 256c12.8 12.8 18.774 27.306 18.774 45.226s-5.974 32.426-18.774 45.226l-256.854 255.146c-12.8 12.8-28.16 18.774-45.226 18.774s-32.426-5.974-45.226-18.774-18.774-27.306-18.774-45.226 5.974-32.426 18.774-45.226l146.774-146.774h-1381.546c-42.666 0-83.626-8.534-122.026-24.746s-72.534-38.4-102.4-67.414-52.906-61.44-69.974-99.84-25.6-77.654-25.6-121.174v-774.826c0-17.066 5.974-32.426 18.774-45.226s27.306-18.774 45.226-18.774 32.426 5.974 45.226 18.774 18.774 27.306 18.774 45.226v768zM2030.080 1389.226c-12.8 12.8-27.306 18.774-45.226 18.774s-32.426-5.974-45.226-18.774-18.774-27.306-18.774-45.226v-768c0-25.6-5.12-50.346-15.36-74.24s-23.894-43.52-41.814-61.44-38.4-31.574-61.44-41.814-47.786-15.36-74.24-15.36h-1379.84l145.92 146.774c12.8 12.8 18.774 27.306 18.774 45.226s-5.974 32.426-18.774 45.226-27.306 18.774-45.226 18.774-32.426-5.974-45.226-18.774l-256-256c-12.8-12.8-18.774-27.306-18.774-45.226s5.974-32.426 18.774-45.226l256-256c12.8-12.8 27.306-18.774 45.226-18.774s32.426 5.974 45.226 18.774 18.774 27.306 18.774 45.226-5.974 32.426-18.774 45.226l-145.92 146.774h1380.694c42.666 0 83.626 8.534 122.026 24.746s72.534 38.4 102.4 67.414 52.906 61.44 69.974 99.84 25.6 78.506 25.6 122.026v774.826c0 17.066-5.974 32.426-18.774 45.226zM1175.040 1378.134c-46.934 19.626-96.426 29.866-150.186 29.866s-100.694-10.24-146.774-29.866-87.894-46.080-122.88-80.214-63.146-74.24-83.626-119.466-30.72-94.72-30.72-146.774 9.386-104.96 29.014-152.746 46.080-89.6 80.214-124.586 75.094-64 121.174-83.626 97.28-30.72 152.746-30.72 103.254 10.24 150.186 29.866 87.040 46.934 122.026 81.92 62.294 75.094 81.92 122.026 29.866 96.426 29.866 150.186-10.24 103.254-29.866 150.186-46.934 87.040-81.92 122.026-75.094 62.294-122.026 81.92zM1261.226 927.574c-13.654-31.574-31.574-59.734-54.614-82.774s-50.346-42.666-81.066-56.32-64.854-20.48-100.694-20.48-68.266 6.826-99.84 20.48-58.026 32.426-81.066 54.614-40.96 50.346-54.614 81.066-20.48 64-20.48 99.84 6.826 67.414 20.48 98.986 32.426 58.88 54.614 81.92 50.346 40.96 81.066 54.614 64 20.48 99.84 20.48 66.56-6.826 97.28-19.626 58.026-31.574 81.92-53.76 41.814-49.494 56.32-79.36 21.334-63.146 21.334-97.28-6.826-69.974-19.626-101.546z" />
<glyph unicode="&#xe125;" glyph-name="People" d="M1371.306 1183.574c29.014-29.866 62.294-52.906 101.546-69.974s81.92-25.6 127.146-25.6 86.186 8.534 124.586 24.746 72.534 39.254 101.546 68.266 52.054 63.146 68.266 101.546 24.746 80.214 24.746 124.586-8.534 86.186-24.746 124.586-39.254 72.534-68.266 101.546-63.146 52.054-101.546 68.266-80.214 24.746-124.586 24.746-83.626-8.534-122.026-24.746-72.534-38.4-102.4-67.414-52.906-61.44-69.974-99.84-25.6-78.506-25.6-122.026 7.68-87.894 23.894-127.146 38.4-74.24 67.414-104.106zM1423.36 1482.24c10.24 23.040 23.894 43.52 41.814 61.44s38.4 31.574 61.44 41.814 47.786 15.36 74.24 15.36 50.346-5.12 74.24-15.36 43.52-23.894 61.44-41.814 31.574-38.4 41.814-61.44 15.36-47.786 15.36-74.24-5.12-50.346-15.36-74.24-23.894-43.52-41.814-61.44-38.4-31.574-61.44-41.814-47.786-15.36-74.24-15.36-50.346 5.12-74.24 15.36-43.52 23.894-61.44 41.814-31.574 38.4-41.814 61.44-15.36 47.786-15.36 74.24 5.12 50.346 15.36 74.24zM384.854 1221.974c40.106-40.96 87.040-74.24 141.654-98.134s113.494-35.84 176.64-35.84 119.466 11.946 173.226 35.84 101.546 55.466 142.506 96.426 72.534 87.894 96.426 142.506 35.84 111.786 35.84 173.226-11.946 119.466-35.84 173.226-55.466 101.546-96.426 142.506-87.894 72.534-142.506 96.426-111.786 35.84-173.226 35.84-116.906-11.946-170.666-34.986-101.546-54.614-142.506-94.72-73.386-87.040-98.134-139.946-36.694-110.080-36.694-169.814 11.094-122.026 34.134-176.64 54.614-103.254 94.72-145.066zM408.746 1660.586c17.066 38.4 39.254 72.534 68.266 101.546s63.146 52.054 101.546 68.266 80.214 24.746 124.586 24.746 83.626-8.534 122.026-24.746 72.534-38.4 102.4-67.414 52.906-61.44 69.974-99.84 25.6-78.506 25.6-122.026-7.68-87.894-23.894-127.146-38.4-74.24-67.414-104.106-62.294-52.906-101.546-69.974-81.92-25.6-127.146-25.6-86.186 8.534-124.586 24.746-72.534 39.254-101.546 68.266-52.054 63.146-68.266 101.546-24.746 80.214-24.746 124.586 8.534 86.186 24.746 124.586zM2034.346 817.494c-9.386 27.306-23.040 51.2-40.106 71.68s-38.4 38.4-62.294 51.2-51.2 19.626-80.214 19.626h-361.814c13.654-19.626 24.746-40.106 34.986-61.44s18.774-43.52 25.6-66.56h301.226c11.094 0 21.334-3.414 29.866-9.386s16.214-14.506 21.334-23.894 10.24-19.626 12.8-30.72 4.266-21.334 4.266-31.574c0-67.414-11.094-125.44-33.28-175.786s-52.906-91.306-92.16-124.586-86.186-59.734-139.094-77.654-111.786-29.866-173.226-34.134c-23.040-47.786-51.2-91.306-83.626-131.414 64.854 0 129.706 5.12 193.706 15.36s125.44 31.574 182.614 62.294c90.454 49.494 158.72 113.494 204.8 192.854s69.12 170.666 69.12 273.066c0 27.306-4.266 54.614-13.654 81.92zM1393.494 796.16c-9.386 29.866-23.894 57.174-41.814 81.92s-40.106 44.374-65.706 59.734-54.614 23.040-86.186 23.040h-991.574c-32.426 0-60.586-7.68-86.186-23.040s-47.786-34.986-65.706-59.734-31.574-51.2-41.814-81.92-14.506-59.734-14.506-87.894c0-58.88 5.974-115.2 17.92-168.106s30.72-104.106 54.614-151.040 55.466-90.454 93.866-129.706 82.774-74.24 134.826-104.106c61.44-34.986 126.294-59.734 195.414-71.68s138.24-18.774 208.214-18.774c34.986 0 69.12 1.706 104.106 4.266s69.12 7.68 103.254 15.36 67.414 16.214 100.694 28.16 64.854 26.454 94.72 43.52c51.2 29.014 95.574 64 133.12 103.254s69.12 82.774 93.866 130.56 43.52 98.134 55.466 151.894 17.92 109.226 17.92 167.254c0 29.014-5.12 58.026-14.506 87.894zM1236.48 474.454c-29.014-64-69.12-117.76-120.32-159.574s-111.786-73.386-182.614-93.014-146.774-29.866-229.546-29.866-159.574 10.24-229.546 29.866-131.414 51.2-182.614 93.014-91.306 95.574-120.32 159.574-43.52 140.8-43.52 229.546c0 11.094 1.706 24.746 5.12 39.254s8.534 29.014 15.36 41.814 16.214 23.894 26.454 33.28 23.040 13.654 36.694 13.654h984.746c13.654 0 26.454-4.266 36.694-13.654s19.626-19.626 26.454-33.28 11.946-27.306 15.36-41.814 5.12-28.16 5.12-39.254c0-88.746-14.506-165.546-43.52-229.546z" />
<glyph unicode="&#xe126;" glyph-name="OpenPane" d="M1792.854 1803.946c134.826 0 245.76-104.106 255.146-237.226v-1042.774c0-134.826-104.106-245.76-236.374-255.146h-1554.774c-134.826 0-245.76 104.106-255.146 236.374v1042.774c0 134.826 104.106 245.76 236.374 255.146h1554.774zM1792.854 1676.8h-384v-1280h384c65.706 0 119.466 49.494 127.146 113.494v1037.654c0.854 65.706-48.64 119.466-111.786 127.146h-14.506zM1280.854 1677.654h-1024c-65.706 0-119.466-49.494-127.146-113.494v-1038.506c-0.854-65.706 48.64-119.466 111.786-127.146h1039.36v1277.44zM781.654 1312.426l9.386-6.826 256-223.574c13.654-11.946 22.186-29.866 22.186-47.786 0-14.506-5.12-29.014-14.506-40.106l-7.68-7.68-256-223.574c-26.454-23.040-67.414-20.48-90.454 5.974-20.48 23.894-20.48 58.026-1.706 81.92l7.68 8.534 128 111.786h-471.040c-34.986 0-64 29.014-64 64 0 31.574 23.040 57.174 52.906 63.146h482.134l-128 112.64c-26.454 23.040-29.014 64-5.974 90.454 20.48 23.894 54.614 28.16 81.066 12.8z" />
<glyph unicode="&#xe127;" glyph-name="ClosePane" d="M579.414 726.186c26.454-17.92 62.294-14.506 85.334 7.68 12.8 12.8 19.626 29.866 19.626 46.934s-6.826 34.986-19.626 47.786l-121.174 121.174h507.734c30.72 6.826 53.76 34.986 53.76 67.414 0 36.694-29.866 67.414-67.414 67.414h-494.080l129.706 131.414c17.92 25.6 14.506 61.44-8.534 84.48-25.6 25.6-69.12 25.6-94.72 0l-244.054-245.76c-17.92-25.6-14.506-61.44 8.534-84.48l245.76-244.054zM1745.066 1792h-1465.174c-157.014-11.946-279.894-145.066-279.894-302.934v-966.826c12.8-157.014 145.066-279.894 302.934-279.894h1465.174c157.014 11.946 279.894 145.066 279.894 302.934v966.826c-12.8 157.014-145.066 279.894-302.934 279.894zM1285.12 377.174h-1000.96c-85.334 11.094-149.334 82.774-149.334 168.96v961.706c11.094 85.334 82.774 150.186 168.96 150.186h981.334v-1280.854zM1913.174 526.506c-10.24-85.334-81.92-149.334-167.254-149.334h-325.974v1280.854h345.6c85.334-11.094 149.334-82.774 149.334-168.96v-962.56z" />
<glyph unicode="&#xe128;" glyph-name="World" d="M2048.854 1024c0-93.866-11.946-184.32-36.694-272.214s-58.88-168.96-103.254-244.906-98.134-145.066-160.426-207.36-131.414-116.054-207.36-160.426-157.014-79.36-244.906-103.254-178.346-36.694-272.214-36.694-184.32 11.946-272.214 36.694-168.96 58.88-244.906 103.254-145.066 98.134-207.36 160.426-116.054 131.414-160.426 207.36-79.36 157.014-103.254 244.906-34.986 178.346-34.986 272.214 11.946 184.32 36.694 272.214 58.88 168.96 103.254 244.906 98.134 145.066 160.426 207.36 131.414 116.054 207.36 160.426 157.014 79.36 244.906 103.254 178.346 36.694 272.214 36.694 184.32-11.946 272.214-36.694 168.96-58.88 244.906-103.254 145.066-98.134 207.36-160.426 116.054-131.414 160.426-207.36 79.36-157.014 103.254-244.906 36.694-178.346 36.694-272.214zM128.854 1024c0-81.066 10.24-159.574 32.426-237.226s52.054-151.040 93.014-220.16c3.414 18.774 5.974 37.546 9.386 56.32s5.974 37.546 9.386 56.32c5.12 28.16 15.36 52.906 29.014 73.386s30.72 39.254 51.2 54.614 41.814 28.16 66.56 38.4 49.494 17.92 75.094 23.040c8.534 1.706 20.48 4.266 34.986 6.826s29.014 6.826 42.666 11.946 25.6 11.946 35.84 19.626 15.36 17.92 15.36 29.866c0 8.534-1.706 18.774-4.266 29.866s-5.974 22.186-9.386 33.28-6.826 22.186-11.094 32.426-7.68 20.48-10.24 29.014c-13.654 40.106-19.626 80.214-19.626 121.174 0 67.414 17.92 120.32 54.614 160.426s87.040 65.706 151.040 77.654c27.306 5.12 52.054 11.946 74.24 20.48s40.96 19.626 57.174 33.28 27.306 31.574 35.84 52.906 12.8 46.934 12.8 78.506c0 16.214-1.706 34.134-5.12 54.614s-8.534 40.96-13.654 62.294-11.946 40.96-19.626 60.586-14.506 36.694-22.186 51.2c-5.974 11.946-12.8 23.894-19.626 34.986s-13.654 23.040-19.626 34.986c-104.96-20.48-202.24-58.026-290.134-111.786s-164.694-120.32-229.546-197.974-115.2-165.546-151.040-262.826-53.76-199.68-53.76-307.2zM360.96 423.254c42.666-46.934 89.6-89.6 139.946-126.294s104.106-67.414 161.28-92.16 115.2-44.374 176.64-57.174 122.88-19.626 186.88-19.626c83.626 0 165.546 11.094 245.76 34.134s156.16 56.32 226.134 99.84c-13.654 12.8-26.454 26.454-39.254 41.814s-23.894 31.574-33.28 47.786-17.066 34.134-23.040 52.906-8.534 37.546-8.534 56.32c0 28.16 5.12 53.76 16.214 78.506s24.746 46.934 41.814 67.414 34.986 39.254 54.614 57.174 37.546 34.134 54.614 50.346 30.72 30.72 41.814 44.374 16.214 27.306 16.214 40.96c0 11.946-5.12 22.186-15.36 31.574s-21.334 13.654-32.426 13.654c-12.8 0-24.746-2.56-37.546-8.534s-24.746-11.946-36.694-18.774-23.894-13.654-35.84-18.774-23.894-8.534-34.986-8.534c-22.186 0-39.254 6.826-52.906 19.626s-22.186 29.866-27.306 50.346c-3.414 14.506-5.974 32.426-8.534 53.76s-5.12 42.666-8.534 64.854-6.826 42.666-11.094 63.146-10.24 35.84-16.214 47.786c-19.626 34.986-41.814 67.414-66.56 97.28s-47.786 62.294-69.12 95.574c-7.68 11.946-12.8 23.040-16.214 33.28s-5.12 22.186-5.12 36.694c0 19.626 4.266 36.694 12.8 52.906s19.626 30.72 33.28 44.374c18.774 17.066 37.546 34.134 57.174 51.2s38.4 33.28 57.174 51.2c38.4 34.986 74.24 71.68 109.226 109.226s69.12 75.094 103.254 114.346c-72.534 46.934-151.040 83.626-233.814 108.374s-168.96 37.546-256 37.546h-15.36c-5.12 0-10.24 0-15.36-0.854 11.094-19.626 22.186-43.52 33.28-69.974s20.48-53.76 28.16-82.774 15.36-56.32 19.626-85.334 7.68-53.76 7.68-76.8c0-31.574-4.266-62.294-12.8-92.16s-21.334-58.88-38.4-84.48c-15.36-23.040-31.574-40.96-48.64-56.32s-35.84-27.306-55.466-36.694-40.96-17.92-63.146-24.746-46.080-11.946-71.68-16.214c-15.36-3.414-30.72-8.534-45.226-15.36s-26.454-17.066-35.84-30.72c-5.974-9.386-10.24-19.626-11.946-30.72s-3.414-23.040-3.414-34.134c0-21.334 2.56-41.814 8.534-62.294s11.946-40.106 18.774-60.586 12.8-40.106 18.774-59.734 8.534-40.96 8.534-62.294c0-34.134-6.826-62.294-21.334-84.48s-32.426-40.96-55.466-54.614-47.786-25.6-75.946-34.134-55.466-15.36-82.774-21.334c-11.946-2.56-24.746-5.974-36.694-10.24s-24.746-10.24-35.84-17.066-20.48-15.36-29.014-24.746-13.654-21.334-15.36-35.84l-36.694-232.106zM1920.854 1024c0 64-6.826 127.146-19.626 188.586s-33.28 122.026-58.88 179.2-58.026 111.786-95.574 163.84-81.066 98.134-129.706 139.946c-28.16-32.426-55.466-63.146-82.774-92.16s-55.466-58.88-83.626-87.040-57.174-56.32-87.040-83.626-60.586-54.614-93.866-81.92c11.094-13.654 22.186-27.306 32.426-41.814s19.626-28.16 29.866-42.666c25.6-34.986 45.226-64 59.734-86.186s25.6-43.52 34.134-64 15.36-44.374 19.626-69.974 11.094-60.586 17.92-103.254c17.066 7.68 35.84 14.506 54.614 19.626s38.4 7.68 57.174 7.68c23.040 0 44.374-4.266 64.854-13.654s39.254-22.186 54.614-38.4 29.014-34.134 38.4-54.614 13.654-42.666 13.654-64.854c0-25.6-5.12-50.346-16.214-72.534s-24.746-43.52-41.814-63.146-34.986-38.4-54.614-56.32-37.546-34.986-54.614-51.2-30.72-32.426-41.814-48.64-16.214-32.426-16.214-48.64c0-11.094 2.56-23.040 8.534-34.134s12.8-22.186 20.48-33.28 17.066-20.48 25.6-29.866 17.92-17.066 25.6-23.894c50.346 42.666 95.574 89.6 134.826 141.654s72.534 107.52 99.84 165.546 47.786 119.466 62.294 182.614 21.334 128 21.334 195.414z" />
<glyph unicode="&#xe129;" glyph-name="Flag1" d="M242.346 640v-576c0-17.92-6.826-32.426-19.626-45.226s-29.014-18.774-47.786-18.774-34.986 5.974-48.64 18.774-20.48 27.306-20.48 45.226v1792.854c0 17.92 6.826 32.426 20.48 45.226s29.866 18.774 48.64 18.774h1567.574c27.306 0 47.786-11.094 60.586-34.134s11.946-45.226-3.414-65.706l-384-540.16 384-541.014c15.36-21.334 16.214-43.52 3.414-65.706s-33.28-33.28-60.586-33.28h-1500.16zM242.346 767.146h1373.866l-339.626 476.16c-16.214 23.040-16.214 46.934 0 70.826l339.626 476.16h-1373.866v-1022.294z" />
<glyph unicode="&#xe12a;" glyph-name="PreviewLink" d="M961.706 901.974h-640.854c-17.066 0-32.426-5.974-45.226-18.774s-18.774-27.306-18.774-44.374 5.974-32.426 18.774-44.374c12.8-12.8 27.306-18.774 45.226-18.774h640.854c17.066 0 32.426 5.974 45.226 18.774s18.774 27.306 18.774 44.374-5.974 32.426-18.774 44.374-27.306 18.774-45.226 18.774zM961.706 647.68h-640.854c-17.066 0-32.426-5.974-45.226-18.774s-18.774-27.306-18.774-44.374 5.974-32.426 18.774-44.374 27.306-18.774 45.226-18.774h640.854c17.066 0 32.426 5.974 45.226 18.774s18.774 27.306 18.774 44.374-5.974 32.426-18.774 44.374-27.306 18.774-45.226 18.774zM1728.854 1665.706h-1408c-17.066 0-32.426-5.974-45.226-18.774s-18.774-27.306-18.774-45.226v-382.294c0-17.066 5.974-32.426 18.774-44.374s27.306-18.774 45.226-18.774h1408c17.066 0 32.426 5.974 45.226 18.774s18.774 27.306 18.774 44.374v383.146c0 17.066-5.974 32.426-18.774 45.226s-27.306 18.774-45.226 18.774zM1664.854 1283.414h-1280v254.294h1280v-254.294zM2023.254 1728.854c-17.066 37.546-39.254 70.826-68.266 98.986s-61.44 50.346-99.84 67.414c-38.4 17.066-77.654 25.6-120.32 25.6h-1420.8c-41.814 0-81.92-8.534-120.32-25.6s-70.826-39.254-99.84-67.414-51.2-61.44-68.266-98.986c-16.214-37.546-24.746-77.654-24.746-119.466v-1159.68c0-41.814 8.534-81.92 25.6-119.466s39.254-70.826 68.266-98.986c28.16-28.16 61.44-50.346 99.84-67.414s77.654-25.6 120.32-25.6h1420.8c41.814 0 81.92 8.534 120.32 25.6s70.826 39.254 99.84 67.414c28.16 28.16 51.2 61.44 68.266 98.986s25.6 77.654 25.6 119.466v1159.68c0 41.814-8.534 81.92-25.6 119.466zM1920.854 456.534c0-25.6-5.12-50.346-15.36-73.386s-23.894-43.52-41.814-61.44-38.4-31.574-61.44-40.96c-23.040-10.24-47.786-14.506-74.24-14.506h-1407.146c-25.6 0-50.346 5.12-74.24 14.506-23.040 10.24-43.52 23.894-61.44 40.96s-31.574 37.546-41.814 61.44c-10.24 23.040-15.36 47.786-15.36 73.386v1146.026c0 25.6 5.12 50.346 15.36 73.386s23.894 43.52 41.814 61.44c17.92 17.92 38.4 31.574 61.44 40.96s47.786 14.506 74.24 14.506h1408c25.6 0 50.346-5.12 74.24-14.506s43.52-23.894 61.44-40.96c17.92-17.92 31.574-38.4 41.814-61.44s15.36-47.786 15.36-73.386v-1146.026zM1728.854 1029.12h-512c-17.066 0-32.426-5.974-45.226-18.774s-18.774-27.306-18.774-45.226v-509.44c0-17.066 5.974-32.426 18.774-44.374s27.306-18.774 45.226-18.774h512c17.066 0 32.426 5.974 45.226 18.774s18.774 27.306 18.774 44.374v509.44c0 17.066-5.974 32.426-18.774 45.226s-27.306 18.774-45.226 18.774zM1664.854 519.68h-384v382.294h384v-382.294z" />
<glyph unicode="&#xe12b;" glyph-name="Globe1" d="M1421.654 81.066c-126.294-53.76-259.414-81.066-397.654-81.066s-270.506 27.306-397.654 81.066-235.52 127.146-326.826 218.454c-91.306 91.306-163.84 200.534-218.454 326.826s-81.066 259.414-81.066 397.654 27.306 270.506 81.066 397.654 127.146 235.52 218.454 326.826c91.306 91.306 200.534 163.84 326.826 218.454s259.414 81.066 397.654 81.066 270.506-27.306 397.654-81.066 235.52-127.146 326.826-218.454c91.306-91.306 163.84-200.534 218.454-326.826s81.066-259.414 81.066-397.654-27.306-270.506-81.066-397.654-127.146-235.52-218.454-326.826c-91.306-91.306-200.534-163.84-326.826-218.454zM536.746 1344h-350.72c-39.254-104.106-58.88-210.774-58.88-320s19.626-215.894 58.88-320h350.72c-17.066 104.106-24.746 210.774-24.746 320s8.534 215.894 24.746 320zM649.386 1730.56c23.894 52.906 52.054 99.84 82.774 141.654-101.546-35.84-194.56-87.894-277.334-157.014-83.626-69.12-151.894-150.186-206.506-243.2h314.026c22.186 93.866 52.054 180.054 87.894 258.56zM561.494 576.854h-314.026c53.76-93.014 122.88-174.080 206.506-243.2 83.626-68.266 175.786-121.174 277.334-157.014-30.72 41.814-58.026 88.746-82.774 141.654-35.84 78.506-64.854 164.694-87.894 258.56zM1381.546 704c17.92 98.134 26.454 204.8 26.454 320s-8.534 221.866-26.454 320h-715.094c-17.92-98.134-26.454-204.8-26.454-320s8.534-221.866 26.454-320h715.094zM765.44 1675.094c-26.454-58.88-50.346-127.146-71.68-203.946h660.48c-20.48 76.8-44.374 144.214-71.68 203.946-37.546 81.066-79.36 141.654-124.586 183.466-45.226 40.96-90.454 62.294-133.974 62.294s-88.746-20.48-133.974-62.294c-45.226-40.96-87.040-102.4-124.586-183.466zM693.76 576c20.48-76.8 44.374-144.214 71.68-203.946 37.546-81.066 79.36-141.654 124.586-183.466 45.226-40.96 90.454-62.294 133.974-62.294s88.746 20.48 133.974 62.294c45.226 40.96 87.040 102.4 124.586 183.466 26.454 58.88 50.346 127.146 71.68 203.946h-660.48zM1316.694 1871.36c30.72-41.814 58.026-88.746 82.774-141.654 35.84-78.506 64.854-164.694 87.894-258.56h314.026c-53.76 93.014-122.88 174.080-206.506 243.2-83.626 68.266-175.786 121.174-277.334 157.014zM1486.506 576c-22.186-93.866-52.054-180.054-87.894-258.56-23.894-52.906-52.054-99.84-82.774-141.654 101.546 35.84 194.56 87.894 277.334 157.014 83.626 69.12 151.894 150.186 206.506 243.2h-314.026zM1861.974 703.146c39.254 104.106 58.88 210.774 58.88 320s-19.626 215.894-58.88 320h-349.866c17.066-104.106 24.746-210.774 24.746-320s-8.534-215.894-24.746-320h349.866z" />
<glyph unicode="&#xe12c;" glyph-name="Trim1" d="M320.854 1408c-17.066 0-32.426-5.974-45.226-18.774s-18.774-27.306-18.774-45.226v-640c0-17.066 5.974-32.426 18.774-45.226s27.306-18.774 45.226-18.774 32.426 5.974 45.226 18.774 18.774 27.306 18.774 45.226v640c0 17.066-5.974 32.426-18.774 45.226s-27.306 18.774-45.226 18.774zM64.854 1408c-17.066 0-32.426-5.974-45.226-18.774s-18.774-27.306-18.774-45.226v-640c0-17.066 5.974-32.426 18.774-45.226s27.306-18.774 45.226-18.774 32.426 5.974 45.226 18.774 18.774 27.306 18.774 45.226v640c0 17.066-5.974 32.426-18.774 45.226s-27.306 18.774-45.226 18.774zM576.854 1536c17.066 0 32.426 5.974 45.226 18.774s18.774 27.306 18.774 45.226v256c0 17.066-5.974 32.426-18.774 45.226s-27.306 18.774-45.226 18.774-32.426-5.974-45.226-18.774-18.774-27.306-18.774-45.226v-256c0-17.066 5.974-32.426 18.774-45.226s27.306-18.774 45.226-18.774zM576.854 512c-17.066 0-32.426-5.974-45.226-18.774s-18.774-27.306-18.774-45.226v-256c0-17.066 5.974-32.426 18.774-45.226s27.306-18.774 45.226-18.774 32.426 5.974 45.226 18.774 18.774 27.306 18.774 45.226v256c0 17.066-5.974 32.426-18.774 45.226s-27.306 18.774-45.226 18.774zM1728.854 1408c-17.066 0-32.426-5.974-45.226-18.774s-18.774-27.306-18.774-45.226v-640c0-17.066 5.974-32.426 18.774-45.226s27.306-18.774 45.226-18.774 32.426 5.974 45.226 18.774 18.774 27.306 18.774 45.226v640c0 17.066-5.974 32.426-18.774 45.226s-27.306 18.774-45.226 18.774zM1472.854 1920c-17.066 0-32.426-5.974-45.226-18.774s-18.774-27.306-18.774-45.226v-256c0-17.066 5.974-32.426 18.774-45.226s27.306-18.774 45.226-18.774 32.426 5.974 45.226 18.774 18.774 27.306 18.774 45.226v256c0 17.066-5.974 32.426-18.774 45.226s-27.306 18.774-45.226 18.774zM1480.534 1351.68c-17.92 17.92-38.4 31.574-61.44 41.814s-47.786 15.36-74.24 15.36h-640c-25.6 0-50.346-5.12-74.24-15.36s-43.52-23.894-61.44-41.814-31.574-38.4-41.814-61.44-15.36-47.786-15.36-74.24v-384c0-25.6 5.12-50.346 15.36-74.24s23.894-43.52 41.814-61.44 38.4-31.574 61.44-41.814 47.786-15.36 74.24-15.36h640c25.6 0 50.346 5.12 74.24 15.36s43.52 23.894 61.44 41.814 31.574 38.4 41.814 61.44 15.36 47.786 15.36 74.24v384c0 25.6-5.12 50.346-15.36 74.24s-23.894 43.52-41.814 61.44zM1408.854 832c0-17.066-5.974-32.426-18.774-45.226s-27.306-18.774-45.226-18.774h-640c-17.066 0-32.426 5.974-45.226 18.774s-18.774 27.306-18.774 45.226v384c0 17.066 5.974 32.426 18.774 45.226s27.306 18.774 45.226 18.774h640c17.066 0 32.426-5.974 45.226-18.774s18.774-27.306 18.774-45.226v-384zM2030.080 1389.226c-12.8 12.8-27.306 18.774-45.226 18.774s-32.426-5.974-45.226-18.774-18.774-27.306-18.774-45.226v-640c0-17.066 5.974-32.426 18.774-45.226s27.306-18.774 45.226-18.774 32.426 5.974 45.226 18.774 18.774 27.306 18.774 45.226v640c0 17.066-5.974 32.426-18.774 45.226zM1472.854 512c-17.066 0-32.426-5.974-45.226-18.774s-18.774-27.306-18.774-45.226v-256c0-17.066 5.974-32.426 18.774-45.226s27.306-18.774 45.226-18.774 32.426 5.974 45.226 18.774 18.774 27.306 18.774 45.226v256c0 17.066-5.974 32.426-18.774 45.226s-27.306 18.774-45.226 18.774z" />
<glyph unicode="&#xe12d;" glyph-name="AttachCamera" d="M2048 1344v-768c0-25.6-5.12-50.346-15.36-74.24s-23.894-43.52-41.814-61.44-38.4-31.574-61.44-41.814-47.786-15.36-74.24-15.36h-1135.786c-31.574-48.64-70.826-85.334-119.466-110.934s-101.546-38.4-158.72-38.4c-43.52 0-83.626 8.534-122.026 25.6s-70.826 40.96-99.84 69.974-50.346 63.146-67.414 102.4-24.746 79.36-24.746 122.026v726.186c-17.92 0-34.986 3.414-50.346 10.24s-29.014 15.36-40.106 27.306-20.48 24.746-27.306 40.106-9.386 32.426-9.386 50.346v256c0 34.986 11.946 65.706 36.694 89.6s55.466 38.4 91.306 38.4h128c17.066 0 34.134-3.414 49.494-10.24s29.014-16.214 40.96-27.306 20.48-25.6 27.306-40.96 10.24-32.426 10.24-49.494v-256c0-17.92-3.414-34.986-10.24-50.346s-16.214-29.014-27.306-40.106-24.746-20.48-40.106-27.306-32.426-10.24-50.346-10.24v-725.334c0-25.6 5.12-50.346 15.36-74.24s23.894-43.52 41.814-61.44 38.4-31.574 61.44-41.814 47.786-15.36 74.24-15.36 51.2 5.12 75.946 16.214 46.080 25.6 64 44.374c-23.040 17.92-41.814 40.106-55.466 67.414s-20.48 55.466-20.48 85.334v768.854c0 25.6 5.12 50.346 15.36 74.24s23.894 43.52 41.814 61.44 38.4 31.574 61.44 41.814 47.786 15.36 74.24 15.36h151.894l75.094 150.186c16.214 32.426 39.254 58.026 70.826 76.8s64.854 29.014 100.694 29.014h354.134c35.84 0 69.974-9.386 100.694-29.014s54.614-45.226 70.826-76.8l75.094-150.186h151.894c25.6 0 50.346-5.12 74.24-15.36s43.52-23.894 61.44-41.814 31.574-38.4 41.814-61.44 15.36-47.786 15.36-74.24zM256 1664h-128v-256h128v256zM1920 1344c0 17.066-5.974 32.426-18.774 45.226s-27.306 18.774-45.226 18.774h-151.894c-27.306 0-50.346 5.974-68.266 18.774s-33.28 28.16-45.226 47.786-23.040 39.254-31.574 61.44-17.92 42.666-26.454 61.44-19.626 34.986-30.72 47.786-26.454 18.774-44.374 18.774h-354.134c-17.92 0-32.426-5.974-44.374-18.774s-21.334-28.16-30.72-47.786-17.92-39.254-27.306-61.44-18.774-42.666-31.574-61.44-27.306-34.986-45.226-47.786-40.96-18.774-68.266-18.774h-151.894c-17.066 0-32.426-5.974-45.226-18.774s-18.774-27.306-18.774-45.226v-768c0-17.066 5.974-32.426 18.774-45.226s27.306-18.774 45.226-18.774h1152c17.066 0 32.426 5.974 45.226 18.774s18.774 27.306 18.774 45.226v768zM1664 1016.32c0-52.054-10.24-100.694-30.72-146.774s-48.64-85.334-83.626-119.466-75.946-60.586-122.88-80.214-95.574-29.866-146.774-29.866-103.254 10.24-150.186 29.866-87.040 46.934-122.026 81.92-62.294 75.094-81.92 122.026-29.866 96.426-29.866 150.186 10.24 103.254 29.866 150.186 46.934 87.040 81.92 122.026 75.094 62.294 122.026 81.92 96.426 29.866 150.186 29.866 105.814-10.24 152.746-30.72 87.894-48.64 122.026-83.626 61.44-77.654 80.214-124.586 29.014-98.134 29.014-152.746zM1536 1029.12c0 34.986-6.826 67.414-21.334 97.28s-32.426 57.174-56.32 79.36-50.346 40.96-81.92 53.76-63.146 19.626-97.28 19.626-68.266-6.826-99.84-20.48-58.026-32.426-81.066-54.614-40.96-50.346-54.614-81.92-20.48-64-20.48-98.986 6.826-68.266 20.48-99.84 32.426-58.026 54.614-81.066 50.346-40.96 81.066-54.614 64-20.48 99.84-20.48 69.12 6.826 100.694 20.48 58.026 32.426 81.066 56.32 40.96 51.2 54.614 82.774 19.626 65.706 19.626 101.546z" />
<glyph unicode="&#xe12e;" glyph-name="ZoomIn" d="M1152.854 1280h-256v256c0 17.066-5.974 32.426-18.774 45.226s-27.306 18.774-45.226 18.774-32.426-5.974-45.226-18.774-18.774-27.306-18.774-45.226v-256h-256c-17.066 0-32.426-5.974-45.226-18.774s-18.774-27.306-18.774-45.226 5.974-32.426 18.774-45.226 27.306-18.774 45.226-18.774h256v-256c0-17.066 5.974-32.426 18.774-45.226s27.306-18.774 45.226-18.774 32.426 5.974 45.226 18.774 18.774 27.306 18.774 45.226v256h256c17.066 0 32.426 5.974 45.226 18.774s18.774 27.306 18.774 45.226-5.974 32.426-18.774 45.226-27.306 18.774-45.226 18.774zM1902.080 237.226l-528.214 528.214c52.906 64 93.014 134.826 121.174 211.626s41.814 157.014 41.814 239.786c0 64.854-8.534 127.146-24.746 186.88s-40.106 116.054-70.826 168.106-67.414 99.84-110.080 142.506-90.454 79.36-142.506 110.080-108.374 54.614-168.106 70.826-122.026 24.746-186.88 24.746-128-8.534-187.734-24.746-116.054-40.106-168.106-70.826-98.986-67.414-141.654-110.080-79.36-89.6-110.080-141.654-54.614-108.374-70.826-168.106-24.746-122.88-24.746-187.734c0-98.134 17.92-189.44 54.614-274.774s87.040-159.574 150.186-223.574 138.24-113.494 223.574-150.186 176.64-54.614 274.774-54.614c82.774 0 162.134 13.654 239.786 41.814s147.626 68.266 211.626 121.174l528.214-528.214c12.8-12.8 27.306-18.774 45.226-18.774s32.426 5.974 45.226 18.774 18.774 27.306 18.774 45.226-5.974 32.426-18.774 45.226zM1239.894 808.96c-52.054-52.054-112.64-93.014-182.614-123.734s-145.066-45.226-223.574-45.226-155.306 15.36-225.28 45.226-131.414 70.826-182.614 122.88-93.014 112.64-122.88 182.614-45.226 145.066-45.226 225.28 15.36 153.6 45.226 223.574 71.68 131.414 123.734 182.614 112.64 93.014 182.614 123.734 145.066 45.226 223.574 45.226c52.906 0 103.254-6.826 152.746-20.48s94.72-33.28 137.386-58.026 81.92-55.466 116.906-90.454 65.706-74.24 90.454-116.906 44.374-88.746 58.026-137.386 20.48-99.84 20.48-152.746c0-79.36-15.36-153.6-45.226-223.574s-71.68-131.414-123.734-182.614z" />
<glyph unicode="&#xe12f;" glyph-name="Bookmarks" d="M210.774 1528.32c-24.746-24.746-55.466-37.546-91.306-37.546s-66.56 12.8-90.454 37.546-36.694 55.466-36.694 91.306 11.946 65.706 36.694 90.454 54.614 36.694 90.454 36.694 66.56-11.946 91.306-36.694 37.546-54.614 37.546-90.454-12.8-66.56-37.546-91.306zM210.774 888.32c-24.746-24.746-55.466-37.546-91.306-37.546s-66.56 12.8-90.454 37.546-36.694 55.466-36.694 91.306 11.946 65.706 36.694 90.454 54.614 36.694 90.454 36.694 66.56-11.946 91.306-36.694 37.546-54.614 37.546-90.454-12.8-66.56-37.546-91.306zM568.32 1683.626h1407.146c17.92 0 32.426-5.974 45.226-18.774s18.774-27.306 18.774-45.226-5.974-32.426-18.774-45.226-27.306-18.774-45.226-18.774h-1407.146c-17.92 0-32.426 5.974-45.226 18.774s-19.626 27.306-19.626 45.226 6.826 32.426 19.626 45.226 28.16 18.774 45.226 18.774zM568.32 1043.626h1407.146c17.92 0 32.426-5.974 45.226-18.774s18.774-27.306 18.774-45.226-5.974-32.426-18.774-45.226-27.306-18.774-45.226-18.774h-1407.146c-17.92 0-32.426 5.974-45.226 18.774s-19.626 27.306-19.626 45.226 6.826 32.426 19.626 45.226 28.16 18.774 45.226 18.774zM723.626 430.934c23.894-24.746 36.694-55.466 36.694-91.306s-11.946-66.56-36.694-91.306-54.614-37.546-90.454-37.546-66.56 12.8-91.306 37.546-37.546 55.466-37.546 91.306 12.8 65.706 37.546 90.454 55.466 36.694 91.306 36.694 66.56-11.946 91.306-36.694zM1080.32 403.626h896c17.92 0 32.426-5.974 45.226-18.774s18.774-27.306 18.774-45.226-5.974-32.426-18.774-45.226-27.306-18.774-45.226-18.774h-896.854c-17.92 0-32.426 5.974-45.226 18.774s-18.774 27.306-18.774 45.226 5.974 32.426 18.774 45.226c12.8 12.8 27.306 18.774 45.226 18.774z" />
<glyph unicode="&#xe130;" glyph-name="Document" d="M510.294 2048h587.946c53.76 0 98.986-18.774 136.534-56.32l500.054-501.76c37.546-37.546 56.32-82.774 56.32-134.826v-1099.094c0-70.826-24.746-131.414-74.24-180.906-49.494-50.346-110.080-75.094-180.906-75.094h-1025.706c-70.826 0-131.414 24.746-180.906 75.094s-74.24 110.080-74.24 180.906v1536c0 70.826 24.746 131.414 74.24 180.906s110.080 75.094 180.906 75.094zM382.294 1792v-1536c0-35.84 11.946-66.56 36.694-91.306s54.614-37.546 90.454-37.546h1025.706c35.84 0 65.706 12.8 90.454 37.546s36.694 55.466 36.694 91.306v1024h-448c-53.76 0-98.986 18.774-136.534 55.466s-56.32 81.92-56.32 135.68v449.706h-511.146c-35.84 0-65.706-12.8-90.454-37.546s-36.694-55.466-36.694-91.306zM1636.694 1408l-485.546 486.4v-422.4c0-17.92 6.826-32.426 19.626-45.226s28.16-18.774 46.080-18.774h421.546z" />
<glyph unicode="&#xe131;" glyph-name="ProtectedDocument" d="M1773.226 1361.92c-12.8 31.574-31.574 58.88-55.466 82.774l-528.214 528.214c-23.894 23.894-52.054 42.666-82.774 55.466s-64 19.626-98.134 19.626h-500.906c-33.28 0-64.854-6.826-95.574-20.48s-57.174-32.426-80.214-54.614-40.96-49.494-54.614-80.214-20.48-62.294-20.48-95.574v-667.306c40.106 14.506 82.774 22.186 128 22.186v640c0 17.92 3.414 34.986 10.24 50.346s16.214 29.014 27.306 40.106 24.746 20.48 40.106 27.306 32.426 10.24 50.346 10.24h504.32s5.12 0 7.68-0.854v-383.146c0-34.134 6.826-66.56 19.626-97.28s31.574-58.026 53.76-81.92 49.494-41.814 79.36-56.32 63.146-21.334 97.28-21.334h388.266s0.854-5.12 0.854-7.68v-1016.32c0-17.92-3.414-34.986-10.24-50.346s-16.214-29.014-27.306-40.106-24.746-20.48-40.106-27.306-32.426-10.24-50.346-10.24h-640v-128h645.12c33.28 0 64.854 6.826 95.574 20.48s57.174 32.426 80.214 54.614 40.96 49.494 54.614 80.214 20.48 62.294 20.48 95.574v1013.76c0 34.134-6.826 66.56-19.626 98.134zM1280.854 1408c-17.92 0-34.986 3.414-50.346 10.24s-29.014 15.36-40.106 27.306-20.48 24.746-27.306 40.106-10.24 32.426-10.24 50.346v294.4l422.4-422.4h-294.4zM739.84 629.76c-9.386 4.266-18.774 6.826-30.72 8.534s-23.040 1.706-34.134 1.706h-34.134v128c0 34.986-6.826 68.266-19.626 99.84s-31.574 58.88-54.614 81.92-50.346 40.96-81.92 54.614-64.854 19.626-99.84 19.626-68.266-6.826-99.84-19.626-58.88-31.574-81.92-54.614-40.96-50.346-54.614-81.92-19.626-64.854-19.626-99.84v-128h-33.28c-11.094 0-23.040 0-34.134-1.706s-21.334-4.266-30.72-8.534-16.214-10.24-22.186-18.774-8.534-19.626-8.534-34.134v-512c0-17.066 5.974-32.426 18.774-45.226s27.306-18.774 45.226-18.774h640c17.066 0 32.426 5.974 45.226 18.774s18.774 27.306 18.774 45.226v512c0 13.654-2.56 25.6-7.68 34.134s-12.8 15.36-21.334 19.626zM503.466 270.506c-6.826-15.36-16.214-29.014-27.306-40.106s-24.746-20.48-40.106-27.306-32.426-10.24-50.346-10.24-34.986 3.414-50.346 10.24-29.014 15.36-40.106 27.306-20.48 24.746-27.306 40.106-10.24 32.426-10.24 50.346 3.414 34.986 10.24 50.346 16.214 29.014 27.306 40.106 24.746 20.48 40.106 27.306 32.426 10.24 50.346 10.24 34.134-3.414 49.494-10.24 29.014-16.214 40.96-27.306 20.48-25.6 27.306-40.96 10.24-32.426 10.24-49.494-3.414-34.986-10.24-50.346zM513.706 640.854h-256.854v128c0 17.92 3.414 34.986 10.24 50.346s16.214 29.014 27.306 40.106 24.746 20.48 40.106 27.306 32.426 10.24 50.346 10.24 34.986-3.414 50.346-10.24 29.014-16.214 40.106-27.306 20.48-24.746 27.306-40.106 10.24-32.426 10.24-50.346v-128z" />
<glyph unicode="&#xe132;" glyph-name="Page1" d="M1280 1281.706c-34.134 0-66.56 6.826-97.28 19.626s-58.026 31.574-81.92 53.76-41.814 49.494-56.32 79.36-21.334 63.146-21.334 97.28v517.974h-516.266c-33.28 0-64.854-6.826-95.574-20.48s-57.174-32.426-80.214-54.614-40.96-49.494-54.614-80.214-20.48-62.294-20.48-95.574v-1546.24c0-33.28 6.826-64.854 20.48-95.574s32.426-57.174 54.614-80.214 49.494-40.96 80.214-54.614 62.294-20.48 95.574-20.48h1034.24c33.28 0 64.854 6.826 95.574 20.48s57.174 32.426 80.214 54.614 40.96 49.494 54.614 80.214 20.48 62.294 20.48 95.574v1029.12h-512zM1188.694 1446.4c11.094-11.094 24.746-20.48 40.106-27.306s32.426-10.24 50.346-10.24h475.306l-602.454 603.306v-474.454c0-17.92 3.414-34.986 10.24-50.346s15.36-29.014 27.306-40.106z" />
<glyph unicode="&#xe133;" glyph-name="Bullets" d="M218.454 1547.094c-24.746-24.746-55.466-37.546-91.306-37.546s-65.706 12.8-90.454 37.546-36.694 55.466-36.694 91.306 11.946 65.706 36.694 90.454 54.614 36.694 90.454 36.694 66.56-11.946 91.306-36.694 37.546-54.614 37.546-90.454-12.8-66.56-37.546-91.306zM218.454 907.094c-24.746-24.746-55.466-37.546-91.306-37.546s-65.706 12.8-90.454 37.546-36.694 55.466-36.694 91.306 11.946 65.706 36.694 90.454 54.614 36.694 90.454 36.694 66.56-11.946 91.306-36.694 37.546-54.614 37.546-90.454-12.8-66.56-37.546-91.306zM218.454 449.706c24.746-24.746 37.546-55.466 37.546-91.306s-12.8-66.56-37.546-91.306-55.466-37.546-91.306-37.546-65.706 12.8-90.454 37.546-36.694 55.466-36.694 91.306 11.946 65.706 36.694 90.454 54.614 36.694 90.454 36.694 66.56-11.946 91.306-35.84zM576 1702.4h1408c17.92 0 32.426-5.974 45.226-18.774s18.774-27.306 18.774-45.226-5.974-32.426-18.774-45.226-27.306-18.774-45.226-18.774h-1408c-17.92 0-32.426 5.974-45.226 18.774s-19.626 27.306-19.626 45.226 6.826 32.426 19.626 45.226 28.16 18.774 45.226 18.774zM576 1062.4h1408c17.92 0 32.426-5.974 45.226-18.774s18.774-27.306 18.774-45.226-5.974-32.426-18.774-45.226-27.306-18.774-45.226-18.774h-1408c-17.92 0-32.426 5.974-45.226 18.774s-19.626 27.306-19.626 45.226 6.826 32.426 19.626 45.226 28.16 18.774 45.226 18.774zM576 422.4h1408c17.92 0 32.426-5.974 45.226-18.774s18.774-27.306 18.774-45.226-5.974-32.426-18.774-45.226-27.306-18.774-45.226-18.774h-1408c-17.92 0-32.426 5.974-45.226 18.774s-19.626 27.306-19.626 45.226 6.826 32.426 19.626 45.226 28.16 18.774 45.226 18.774z" />
<glyph unicode="&#xe134;" glyph-name="Comment" d="M614.4 25.6c-28.16-20.48-59.734-29.014-94.72-24.746s-63.146 21.334-83.626 49.494c-17.92 22.186-26.454 47.786-26.454 75.946v277.334h-75.946c-91.306 0-169.814 32.426-234.666 96.426s-98.986 141.654-98.986 232.96v858.454c0 90.454 32.426 168.106 98.134 232.96s143.36 96.426 234.666 96.426h1382.4c91.306 0 169.814-32.426 234.666-96.426s97.28-141.654 97.28-232.106v-859.306c0-90.454-32.426-168.106-97.28-232.106s-143.36-96.426-234.666-96.426h-587.094l-513.706-378.88zM1085.44 533.334h629.76c57.174 0 105.814 19.626 145.92 58.88s59.734 86.186 59.734 141.654v857.6c0 54.614-19.626 102.4-59.734 141.654s-87.894 58.88-145.92 58.88h-1382.4c-57.174 0-105.814-19.626-145.92-58.88-39.254-39.254-59.734-86.186-59.734-141.654v-858.454c0-54.614 19.626-102.4 59.734-141.654 39.254-39.254 87.894-58.88 145.92-58.88h204.8v-405.334l547.84 405.334z" />
<glyph unicode="&#xe135;" glyph-name="MailFilled" d="M205.654 128.854c-27.306 0-53.76 5.12-78.506 16.214s-46.934 25.6-65.706 44.374-33.28 40.96-44.374 65.706-16.214 51.2-16.214 79.36v1227.946c0 27.306 5.12 53.76 16.214 78.506s25.6 46.934 44.374 65.706 40.96 33.28 65.706 44.374 51.2 16.214 78.506 16.214h1638.4c27.306 0 53.76-5.12 78.506-16.214s46.934-25.6 65.706-44.374 33.28-40.96 44.374-65.706 16.214-51.2 16.214-78.506v-1228.8c0-28.16-5.12-53.76-16.214-79.36s-25.6-46.934-44.374-65.706-40.96-33.28-65.706-44.374-51.2-16.214-78.506-16.214h-1638.4z" />
<glyph unicode="&#xe136;" glyph-name="ContactInfo1" d="M630.614 1247.574c65.706-38.4 138.24-58.026 215.040-58.026 117.76 0 219.306 42.666 302.934 125.44 83.626 83.626 125.44 186.026 125.44 303.786s-41.814 220.16-125.44 303.786c-82.774 82.774-185.174 125.44-302.934 125.44s-220.16-42.666-303.786-125.44c-83.626-83.626-125.44-185.174-125.44-302.934 0-76.8 19.626-149.334 58.026-215.040s91.306-118.614 156.16-157.014zM545.28 1619.626c0 82.774 29.866 153.6 87.894 211.626s129.706 87.894 213.334 87.894 154.454-29.014 212.48-87.040c58.026-58.026 87.040-129.706 87.040-212.48s-29.866-154.454-87.894-213.334c-58.026-58.026-129.706-87.894-211.626-87.894s-154.454 29.866-213.334 87.894c-58.026 58.026-87.894 129.706-87.894 213.334zM1438.72 907.094c-17.066-17.066-25.6-37.546-25.6-61.44s8.534-44.374 25.6-61.44c17.066-17.066 37.546-25.6 61.44-25.6s44.374 8.534 61.44 25.6c17.066 17.066 25.6 37.546 25.6 61.44s-8.534 44.374-25.6 61.44c-34.134 34.134-87.894 34.134-122.026 0zM1448.96 657.92c-13.654-13.654-21.334-30.72-21.334-50.346v-238.080c0-19.626 6.826-36.694 21.334-50.346 13.654-13.654 30.72-21.334 50.346-21.334s36.694 6.826 50.346 21.334c13.654 13.654 21.334 30.72 21.334 50.346v238.080c0 19.626-6.826 36.694-21.334 50.346-28.16 28.16-73.386 28.16-101.546 0zM1974.614 882.346c-48.64 83.626-116.054 151.040-199.68 199.68s-175.786 73.386-274.774 73.386-191.146-24.746-274.774-73.386c-83.626-48.64-151.040-116.054-199.68-199.68s-73.386-175.786-73.386-274.774 24.746-191.146 73.386-274.774c48.64-83.626 116.054-151.040 199.68-199.68s175.786-73.386 274.774-73.386 191.146 24.746 274.774 73.386c83.626 48.64 151.040 116.054 199.68 199.68s73.386 175.786 73.386 274.774-24.746 191.146-73.386 274.774zM1903.786 607.574c0-111.786-39.254-207.36-117.76-285.866s-174.080-117.76-285.866-117.76-208.214 40.106-286.72 118.614c-78.506 78.506-118.614 174.934-118.614 285.014s40.106 208.214 118.614 286.72c78.506 78.506 174.934 118.614 286.72 118.614s206.506-40.106 285.014-118.614c78.506-78.506 118.614-174.934 118.614-286.72zM891.734 323.414c-18.774 0-34.986-1.706-46.080-1.706-210.774 0-381.44 40.96-509.44 122.026-128 81.92-192.854 196.266-192.854 341.334 0 29.866 10.24 54.614 31.574 75.094s46.080 30.72 75.946 30.72h641.706c8.534 17.92 16.214 34.986 26.454 52.054 19.626 33.28 41.814 63.146 65.706 92.16h-733.866c-69.12 0-128.854-24.746-177.494-73.386-48.64-46.934-73.386-106.666-73.386-174.934 0-99.84 23.040-189.44 68.266-267.946 45.226-77.654 109.226-143.36 190.294-195.414 150.186-96.426 347.306-145.066 586.24-145.066 45.226 0 89.6 2.56 132.266 6.826-21.334 26.454-41.814 54.614-59.734 84.48-10.24 17.066-17.92 35.84-26.454 53.76z" />
<glyph unicode="&#xe137;" glyph-name="HangUp1" d="M1092.266 1785.174v0c-251.734 0-487.254-56.32-663.894-158.72s-273.92-239.786-273.92-386.56v-130.56c0-93.014 81.066-196.266 196.266-196.266 61.44 0 177.494 14.506 354.134 43.52 52.054 3.414 84.48 35.84 97.28 98.134 5.974 28.16 6.826 52.054 6.826 98.134v88.746l7.68 6.826c15.36 12.8 39.254 22.186 57.174 28.16 112.64 37.546 325.974 37.546 437.76 0 17.92-5.974 41.814-15.36 57.174-28.16l7.68-6.826v-88.746c0-21.334 0-32.426 0-46.080 5.12-106.666 32.426-146.774 100.694-150.186 179.2-29.866 295.254-43.52 356.694-43.52 112.64 0 196.266 104.106 196.266 196.266v87.040c0 17.066 0 31.574 0 46.080 0 300.374-420.694 543.574-938.666 543.574zM1899.52 1108.48c0-27.306-33.28-65.706-65.706-65.706-50.346 0-154.454 12.8-308.054 37.546l-17.066 2.56-1.706 17.066s0 7.68 0 11.946c0 11.094 0 19.626 0 40.106v87.040c0 177.494-290.134 196.266-414.72 196.266v0c-124.586 0-228.694-17.066-300.374-49.494-75.946-34.134-114.346-83.626-114.346-146.774v-87.040c0-23.894 0-39.254-1.706-52.054l-1.706-17.066-17.066-2.56c-153.6-24.746-256.854-37.546-308.054-37.546-33.28 0-65.706 37.546-65.706 65.706v130.56c0 105.814 87.894 212.48 240.64 290.986 154.454 79.36 355.84 123.734 566.614 123.734v0c437.76 0 807.254-190.294 807.254-414.72 0-14.506 0-28.16 0-44.374v-87.040zM1306.454 617.814l-171.52-171.52v528.214c0 34.986-29.014 64-64 64s-64-29.014-64-64v-528.214l-171.52 171.52c-11.946 11.946-28.16 18.774-45.226 18.774s-33.28-6.826-45.226-18.774-18.774-28.16-18.774-45.226 6.826-33.28 18.774-45.226l268.8-268.8c31.574-31.574 82.774-31.574 115.2 0l268.8 268.8c11.946 11.946 18.774 28.16 18.774 45.226s-6.826 33.28-18.774 45.226c-23.894 23.894-66.56 23.894-90.454 0z" />
<glyph unicode="&#xe138;" glyph-name="ViewAll" d="M848.214 848.214c-17.066 17.066-36.694 29.866-58.88 39.254s-46.080 14.506-70.826 14.506h-365.226c-24.746 0-48.64-5.12-70.826-14.506s-41.814-23.040-58.88-39.254c-17.066-17.066-29.866-36.694-39.254-58.88s-14.506-46.080-14.506-70.826v-366.080c0-24.746 5.12-48.64 14.506-70.826s23.040-41.814 39.254-58.88c17.066-17.066 36.694-29.866 58.88-39.254s46.080-14.506 70.826-14.506h366.080c24.746 0 48.64 5.12 70.826 14.506s41.814 23.040 58.88 39.254c17.066 17.066 29.866 36.694 39.254 58.88s14.506 46.080 14.506 70.826v366.080c0 24.746-5.12 48.64-14.506 70.826s-23.040 41.814-39.254 58.88zM779.946 353.28c0-16.214-5.974-30.72-17.92-42.666s-26.454-17.92-42.666-17.92h-366.080c-16.214 0-30.72 5.974-42.666 17.92s-17.92 26.454-17.92 42.666v366.080c0 16.214 5.974 30.72 17.92 42.666s26.454 17.92 42.666 17.92h366.080c16.214 0 30.72-5.974 42.666-17.92s17.92-26.454 17.92-42.666v-366.080zM848.214 1823.574c-17.066 17.066-36.694 29.866-58.88 39.254s-46.080 14.506-70.826 14.506h-365.226c-24.746 0-48.64-5.12-70.826-14.506s-41.814-23.040-58.88-39.254c-17.066-17.066-29.866-36.694-39.254-58.88s-14.506-46.080-14.506-70.826v-366.080c0-24.746 5.12-48.64 14.506-70.826s23.040-41.814 39.254-58.88c17.066-17.066 36.694-29.866 58.88-39.254s46.080-14.506 70.826-14.506h366.080c24.746 0 48.64 5.12 70.826 14.506s41.814 23.040 58.88 39.254c17.066 17.066 29.866 36.694 39.254 58.88s14.506 46.080 14.506 70.826v366.934c0 24.746-5.12 48.64-14.506 70.826s-23.040 41.814-39.254 58.88zM779.946 1328.64c0-16.214-5.974-30.72-17.92-42.666s-26.454-17.92-42.666-17.92h-366.080c-16.214 0-30.72 5.974-42.666 17.92s-17.92 26.454-17.92 42.666v366.080c0 16.214 5.974 30.72 17.92 42.666s26.454 17.92 42.666 17.92h366.080c16.214 0 30.72-5.974 42.666-17.92s17.92-26.454 17.92-42.666v-366.080zM1823.574 848.214c-17.066 17.066-36.694 29.866-58.88 39.254s-46.080 14.506-70.826 14.506h-366.080c-24.746 0-48.64-5.12-70.826-14.506s-41.814-23.040-58.88-39.254c-17.066-17.066-29.866-36.694-39.254-58.88s-14.506-46.080-14.506-70.826v-366.080c0-24.746 5.12-48.64 14.506-70.826s23.040-41.814 39.254-58.88c17.066-17.066 36.694-29.866 58.88-39.254s46.080-14.506 70.826-14.506h366.080c24.746 0 48.64 5.12 70.826 14.506s41.814 23.040 58.88 39.254c17.066 17.066 29.866 36.694 39.254 58.88s14.506 46.080 14.506 70.826v366.080c0 24.746-5.12 48.64-14.506 70.826s-23.040 41.814-39.254 58.88zM1755.306 353.28c0-16.214-5.974-30.72-17.92-42.666s-26.454-17.92-42.666-17.92h-366.080c-16.214 0-30.72 5.974-42.666 17.92s-17.92 26.454-17.92 42.666v366.080c0 16.214 5.974 30.72 17.92 42.666s26.454 17.92 42.666 17.92h366.080c16.214 0 30.72-5.974 42.666-17.92s17.92-26.454 17.92-42.666v-366.080zM1862.826 1764.694c-9.386 22.186-23.040 41.814-39.254 58.88-17.066 17.066-36.694 29.866-58.88 39.254s-46.080 14.506-70.826 14.506h-366.080c-24.746 0-48.64-5.12-70.826-14.506s-41.814-23.040-58.88-39.254c-17.066-17.066-29.866-36.694-39.254-58.88s-14.506-46.080-14.506-70.826v-366.080c0-24.746 5.12-48.64 14.506-70.826s23.040-41.814 39.254-58.88c17.066-17.066 36.694-29.866 58.88-39.254s46.080-14.506 70.826-14.506h366.080c24.746 0 48.64 5.12 70.826 14.506s41.814 23.040 58.88 39.254c17.066 17.066 29.866 36.694 39.254 58.88s14.506 46.080 14.506 70.826v366.934c0 24.746-5.12 48.64-14.506 70.826zM1755.306 1328.64c0-16.214-5.974-30.72-17.92-42.666s-26.454-17.92-42.666-17.92h-366.080c-16.214 0-30.72 5.974-42.666 17.92s-17.92 26.454-17.92 42.666v366.080c0 16.214 5.974 30.72 17.92 42.666s26.454 17.92 42.666 17.92h366.080c16.214 0 30.72-5.974 42.666-17.92s17.92-26.454 17.92-42.666v-366.080z" />
</font>
</defs>
</svg>
