<svg id="Layer_1" data-name="Layer 1" xmlns="http://www.w3.org/2000/svg" viewBox="0 0 24 24"><path d="M16.57,11.74,9.93,7.92c-.24-.14-.43,0-.43.25v7.64c0,.28.19.39.43.25l6.64-3.82A.27.27,0,0,0,16.57,11.74Zm-2.5.5-2.89,1.67c-.24.13-.43,0-.43-.25V10.32c0-.27.19-.38.43-.25l2.89,1.67A.27.27,0,0,1,14.07,12.24Z"/><path d="M21.64,9.34a9.39,9.39,0,0,0-1-2.39,9.87,9.87,0,0,0-1.57-2,9.56,9.56,0,0,0-2-1.56,9.47,9.47,0,0,0-2.38-1,10,10,0,0,0-5.32,0A9.32,9.32,0,0,0,7,3.37a9.89,9.89,0,0,0-2,1.56A10.19,10.19,0,0,0,3.37,7a9.39,9.39,0,0,0-1,2.39A9.69,9.69,0,0,0,2,12a9.93,9.93,0,0,0,.24,2.19,10.72,10.72,0,0,0,.7,2A9.5,9.5,0,0,0,4.05,18a10.29,10.29,0,0,0,1.47,1.55A10,10,0,0,0,7.3,20.79a13.48,13.48,0,0,0,1.56.66.48.48,0,0,0,.61-.32l.06-.24a.55.55,0,0,0-.33-.65,11.57,11.57,0,0,1-2.13-1A8.72,8.72,0,0,1,3.25,12a8.54,8.54,0,0,1,.31-2.32,8.37,8.37,0,0,1,.89-2.08A8.78,8.78,0,0,1,7.59,4.44a9,9,0,0,1,2.09-.88,8.84,8.84,0,0,1,4.64,0,9,9,0,0,1,2.09.88,8.91,8.91,0,0,1,4,5.23A8.54,8.54,0,0,1,20.75,12a8.33,8.33,0,0,1-.36,2.44,8.65,8.65,0,0,1-2.58,4.06,11.1,11.1,0,0,1-1.62,1.12c-.24.13-.44,0-.44-.26V17.49a.5.5,0,0,0-.5-.5H15a.5.5,0,0,0-.5.5v4a.5.5,0,0,0,.5.5h4a.5.5,0,0,0,.5-.5v-.25a.51.51,0,0,0-.5-.5H17.31c-.27,0-.31-.12-.07-.27A13.7,13.7,0,0,0,19,19.14a10.18,10.18,0,0,0,1.63-2.08A9.83,9.83,0,0,0,22,12,9.69,9.69,0,0,0,21.64,9.34Z"/></svg>