<svg id="Layer_1" data-name="Layer 1" xmlns="http://www.w3.org/2000/svg" viewBox="0 0 24 24"><path d="M17.77,13.51a.5.5,0,0,0,0,.71l1.16,1.16c.19.19.13.35-.15.35H16.1a1.5,1.5,0,0,1-.87-.33l-2.37-2.18a.51.51,0,0,0-.71,0l-.17.19a.5.5,0,0,0,0,.7l2.73,2.51a1.5,1.5,0,0,0,.87.33h3.16c.27,0,.34.16.15.36L17.75,18.5a.51.51,0,0,0,0,.71l.18.17a.5.5,0,0,0,.71,0l2.68-2.67a.51.51,0,0,0,0-.71l-2.67-2.67a.51.51,0,0,0-.71,0Z"/><path d="M8.54,11a.51.51,0,0,0,.71,0l.17-.19a.51.51,0,0,0,0-.71l-3-2.71A1.51,1.51,0,0,0,5.56,7H2.5a.5.5,0,0,0-.5.5v.25a.5.5,0,0,0,.5.5H5.07a1.51,1.51,0,0,1,.87.34Z"/><path d="M19.39,8.23c.27,0,.34.16.15.36L18.37,9.75a.51.51,0,0,0,0,.71l.18.17a.5.5,0,0,0,.71,0L21.92,8a.5.5,0,0,0,0-.71L19.24,4.58a.5.5,0,0,0-.7,0l-.18.18a.51.51,0,0,0,0,.71l1.16,1.16c.2.19.13.35-.14.35H16.22a1.51,1.51,0,0,0-.87.34L6.55,15.4a1.5,1.5,0,0,1-.87.33H2.5a.5.5,0,0,0-.5.5v.25a.5.5,0,0,0,.5.5H6.17A1.56,1.56,0,0,0,7,16.65l8.79-8.08a1.57,1.57,0,0,1,.87-.34Z"/></svg>