<svg id="Layer_1" data-name="Layer 1" xmlns="http://www.w3.org/2000/svg" viewBox="0 0 24 24"><path d="M16.84,3.83a2.6,2.6,0,0,0-.57-.45,2.53,2.53,0,0,0-.72-.09H9.36a2.61,2.61,0,0,0-.73.1,2.4,2.4,0,0,0-.57.48L4,8.36c-.18.21-.33.15-.33-.13V6.42a.5.5,0,0,0-.5-.5H2.92a.5.5,0,0,0-.5.5V10.2a.5.5,0,0,0,.5.5H6.69a.5.5,0,0,0,.5-.5V10a.51.51,0,0,0-.5-.5H5.2c-.27,0-.35-.16-.16-.37L8.8,4.91a1.32,1.32,0,0,1,.84-.37h5.65a1.38,1.38,0,0,1,.85.36l4.2,4.29a.5.5,0,0,0,.71,0L21.22,9a.5.5,0,0,0,0-.71Z"/><path d="M9,11.89c-.21.14-.44.28-.68.41s-.49.25-.74.35a7,7,0,0,1-.71.26v1a3.94,3.94,0,0,0,.61-.2,6.49,6.49,0,0,0,.59-.28,5.75,5.75,0,0,0,.51-.3A2.39,2.39,0,0,0,9,12.88v7.68h1V11.47H9.58A4.53,4.53,0,0,1,9,11.89Z"/><path d="M14.57,11.52a2.66,2.66,0,0,0-1.28.31,2.48,2.48,0,0,0-.94.91,4.7,4.7,0,0,0-.57,1.5,9.62,9.62,0,0,0-.2,2,8.12,8.12,0,0,0,.19,1.88,4.29,4.29,0,0,0,.54,1.39,2.58,2.58,0,0,0,.88.86,2.48,2.48,0,0,0,1.2.29,2.5,2.5,0,0,0,1.26-.31,2.55,2.55,0,0,0,.93-.89,4.41,4.41,0,0,0,.58-1.46,8.32,8.32,0,0,0,.21-2C17.37,13,16.43,11.52,14.57,11.52Zm-.08,8.32c-1.25,0-1.87-1.2-1.87-3.6,0-2.57.63-3.86,1.9-3.86s1.8,1.27,1.8,3.8S15.71,19.84,14.49,19.84Z"/></svg>