<svg id="Layer_1" data-name="Layer 1" xmlns="http://www.w3.org/2000/svg" viewBox="0 0 24 24"><defs><style>.cls-1{fill:#00000a;}</style></defs><path class="cls-1" d="M9.79,16.38a2.23,2.23,0,0,0-.67-.44,2.48,2.48,0,0,0-.83-.22v0a2.16,2.16,0,0,0,1.77-2.25,2,2,0,0,0-.18-.86,1.74,1.74,0,0,0-.5-.67,2.14,2.14,0,0,0-.77-.43,2.93,2.93,0,0,0-1-.16,3.86,3.86,0,0,0-2,.51v1a2.86,2.86,0,0,1,1.77-.63c1.11,0,1.67.51,1.67,1.51s-.73,1.64-2.19,1.64h-.7v.86h.73c1.65,0,2.48.58,2.48,1.74a1.8,1.8,0,0,1-.14.71,1.58,1.58,0,0,1-.42.54,1.87,1.87,0,0,1-.64.34,2.75,2.75,0,0,1-.84.12,3.24,3.24,0,0,1-2.06-.71V20a3.62,3.62,0,0,0,2,.49,3.93,3.93,0,0,0,1.27-.2,2.79,2.79,0,0,0,1-.54,2.54,2.54,0,0,0,.64-.84,2.59,2.59,0,0,0,.22-1.09,2,2,0,0,0-.59-1.46Z"/><path class="cls-1" d="M14.52,11.32a2.55,2.55,0,0,0-1.28.31,2.48,2.48,0,0,0-.94.91A4.73,4.73,0,0,0,11.73,14a9.72,9.72,0,0,0-.2,2.06A8.18,8.18,0,0,0,11.72,18a4.14,4.14,0,0,0,.54,1.38,2.43,2.43,0,0,0,.89.86,2.31,2.31,0,0,0,1.19.3,2.61,2.61,0,0,0,1.26-.31,2.5,2.5,0,0,0,.93-.9,4.58,4.58,0,0,0,.59-1.45,9,9,0,0,0,.2-2Q17.32,11.33,14.52,11.32Zm-.08,8.32c-1.24,0-1.87-1.2-1.87-3.6,0-2.57.64-3.86,1.9-3.86s1.81,1.27,1.81,3.79S15.66,19.64,14.44,19.64Z"/><path class="cls-1" d="M20.83,5.71a.5.5,0,0,0-.5.5V8c0,.28-.15.34-.33.13L15.94,3.66a2.4,2.4,0,0,0-.57-.48,2.61,2.61,0,0,0-.73-.1H8.45a2.53,2.53,0,0,0-.72.09,3,3,0,0,0-.57.45L2.77,8.1a.5.5,0,0,0,0,.71L3,9a.51.51,0,0,0,.71,0l4.2-4.29a1.38,1.38,0,0,1,.85-.36h5.65a1.32,1.32,0,0,1,.84.37L19,8.87c.19.21.11.38-.16.38H17.31a.5.5,0,0,0-.5.5V10a.51.51,0,0,0,.5.5h3.77a.5.5,0,0,0,.5-.5V6.21a.5.5,0,0,0-.5-.5Z"/></svg>