<svg id="Layer_1" data-name="Layer 1" xmlns="http://www.w3.org/2000/svg" viewBox="0 0 24 24"><path d="M16.62,5.23a1.52,1.52,0,0,0-.48-.1H7.85a1.52,1.52,0,0,0-.47.1l-.3.3A1.52,1.52,0,0,0,7,6V18a1.52,1.52,0,0,0,.1.48l.3.3a1.52,1.52,0,0,0,.47.1h8.29a1.52,1.52,0,0,0,.48-.1l.3-.3A1.52,1.52,0,0,0,17,18V6a1.52,1.52,0,0,0-.1-.48Zm-.85,12.14a.25.25,0,0,1-.25.25h-7a.25.25,0,0,1-.25-.25V6.63a.25.25,0,0,1,.25-.25h7a.25.25,0,0,1,.25.25Z"/><rect x="18.25" y="17.62" width="1.25" height="1.25" rx="0.25"/><rect x="20.75" y="17.62" width="1.25" height="1.25" rx="0.25"/><rect x="2" y="17.62" width="1.25" height="1.25" rx="0.25"/><rect x="4.5" y="17.62" width="1.25" height="1.25" rx="0.25"/><rect x="18.25" y="5.13" width="1.25" height="1.25" rx="0.25"/><rect x="20.75" y="5.13" width="1.25" height="1.25" rx="0.25"/><rect x="2" y="5.13" width="1.25" height="1.25" rx="0.25"/><rect x="2" y="7.63" width="1.25" height="1.25" rx="0.25"/><rect x="2" y="10.13" width="1.25" height="1.25" rx="0.25"/><rect x="2" y="12.63" width="1.25" height="1.25" rx="0.25"/><rect x="2" y="15.12" width="1.25" height="1.25" rx="0.25"/><rect x="20.75" y="7.63" width="1.25" height="1.25" rx="0.25"/><rect x="20.75" y="10.13" width="1.25" height="1.25" rx="0.25"/><rect x="20.75" y="12.63" width="1.25" height="1.25" rx="0.25"/><rect x="20.75" y="15.12" width="1.25" height="1.25" rx="0.25"/><rect x="4.5" y="5.13" width="1.25" height="1.25" rx="0.25"/></svg>